<?xml version="1.0" encoding="UTF-8"?>
<svg version="1.1" xmlns="http://www.w3.org/2000/svg" width="443" height="300">
<path d="M0 0 C6.97826407 5.55898646 13.66747965 11.44545677 19.10302734 18.55566406 C19.64830078 19.25304688 20.19357422 19.95042969 20.75537109 20.66894531 C37.15808752 42.79959446 43.1512861 67.01702652 43.31396484 94.20019531 C43.33485449 96.16713924 43.35576193 98.13408314 43.37766457 100.10101604 C43.43028374 104.8971127 43.47493972 109.69320547 43.50439453 114.48950195 C43.52143753 117.19469538 43.54626254 119.89961412 43.57925415 122.60466003 C43.60980295 125.13344721 43.62954553 127.66239786 43.63632202 130.19136047 C43.79371409 141.28797991 45.55959127 151.86495154 50.79052734 161.74316406 C51.13937988 162.41677979 51.48823242 163.09039551 51.84765625 163.78442383 C61.58355302 182.02119678 77.19016259 193.34056743 96.56005859 199.61035156 C115.55335153 204.67802178 135.83195964 201.55013208 153.10302734 192.55566406 C159.50741484 188.5077871 164.32906805 183.37566572 169.10302734 177.55566406 C177.32513228 167.5649599 186.72154633 160.06725333 199.94677734 158.14160156 C215.08673315 157.26814257 232.32655271 162.42703924 245.10302734 170.55566406 C241.13563129 188.25558687 229.71348361 206.04448222 218.10302734 219.55566406 C217.56291016 220.31621094 217.02279297 221.07675781 216.46630859 221.86035156 C216.01642578 222.41980469 215.56654297 222.97925781 215.10302734 223.55566406 C214.44302734 223.55566406 213.78302734 223.55566406 213.10302734 223.55566406 C212.88904297 224.10996094 212.67505859 224.66425781 212.45458984 225.23535156 C210.6489756 228.3351633 208.19776456 230.40969765 205.47802734 232.68066406 C204.90753662 233.15858398 204.3370459 233.63650391 203.74926758 234.12890625 C180.38740258 253.20571917 151.28811941 264.70066761 121.10302734 265.55566406 C120.15943359 265.595625 119.21583984 265.63558594 118.24365234 265.67675781 C83.60717147 266.49004535 51.11995244 254.20318411 25.10302734 231.55566406 C24.39919922 230.98460937 23.69537109 230.41355469 22.97021484 229.82519531 C17.19156739 225.05497849 12.66341719 219.47657021 8.10302734 213.55566406 C6.91193359 212.06486328 6.91193359 212.06486328 5.69677734 210.54394531 C-13.14166592 186.23482711 -21.23517938 156.29771089 -20.92431641 125.93457031 C-20.91167255 123.5107436 -20.89931141 121.0869154 -20.88720703 118.66308594 C-20.86241708 114.88691433 -20.83440775 111.11082257 -20.80102539 107.3347168 C-20.77063723 103.65966312 -20.75299624 99.98471029 -20.73681641 96.30957031 C-20.72335678 95.19465714 -20.70989716 94.07974396 -20.69602966 92.93104553 C-20.65011267 78.41655468 -23.57691981 65.21816487 -33.86181641 54.36816406 C-45.48542508 44.01623619 -57.88890325 41.54985893 -72.97167969 42.38720703 C-83.30187029 43.29106596 -93.92406901 48.91228891 -100.89697266 56.55566406 C-105.62222061 63.00744492 -108.44326476 69.9932105 -110.89697266 77.55566406 C-111.39197266 79.04066406 -111.39197266 79.04066406 -111.89697266 80.55566406 C-111.98996471 82.63860264 -112.02162125 84.72445016 -112.02154541 86.8094635 C-112.02410843 88.12015808 -112.02667145 89.43085266 -112.02931213 90.78126526 C-112.02724211 92.23739631 -112.02511935 93.69352729 -112.02294922 95.1496582 C-112.02434398 96.68065442 -112.02624329 98.21165024 -112.02861023 99.74264526 C-112.03310927 103.04275383 -112.03496336 106.34284995 -112.03507233 109.6429615 C-112.03621288 114.86734795 -112.04905409 120.09166376 -112.06463623 125.31602478 C-112.06720908 126.19803293 -112.06978194 127.08004108 -112.07243276 127.98877674 C-112.07769954 129.7926312 -112.08298503 131.59648561 -112.08828878 133.40033996 C-112.12337694 145.56304664 -112.14995456 157.72566624 -112.14746094 169.88842773 C-112.14586946 178.0919297 -112.16197769 186.29519121 -112.19816756 194.49861616 C-112.21658588 198.8373008 -112.22600701 203.17558423 -112.21369171 207.51429939 C-112.20220409 211.60128357 -112.21407651 215.68755147 -112.24332619 219.77444077 C-112.24993406 221.2682955 -112.24815635 222.76221649 -112.23702812 224.25604439 C-112.16307034 235.08943517 -113.76594993 243.08050323 -121.08447266 251.36816406 C-127.76968164 257.56957503 -136.19482606 261.00022606 -145.27587891 260.82128906 C-155.59656392 259.77537762 -163.12759091 255.29942651 -169.89697266 247.55566406 C-175.54361675 239.51533388 -176.19864656 229.81946889 -176.13989258 220.28979492 C-176.1427401 218.80876785 -176.1427401 218.80876785 -176.14564514 217.29782104 C-176.14934017 214.03863501 -176.13863668 210.77967411 -176.12744141 207.52050781 C-176.12624504 205.2045545 -176.12579741 202.8886007 -176.12605286 200.57264709 C-176.12448828 195.69626859 -176.11622254 190.8199635 -176.1027832 185.94360352 C-176.08615875 179.8496973 -176.08207455 173.75587329 -176.0825634 167.66194725 C-176.08227909 144.45425825 -175.99513791 121.24430719 -175.6206913 98.03930855 C-175.58930709 96.00666251 -175.56229132 93.9739432 -175.5401516 91.94117546 C-175.20920562 63.12379295 -167.97121399 36.13383879 -147.89697266 14.55566406 C-147.4512793 14.06904297 -147.00558594 13.58242188 -146.54638672 13.08105469 C-108.93334646 -27.65564917 -44.33678737 -33.75758483 0 0 Z " fill="#DF4758" transform="translate(186.89697265625,32.4443359375)"/>
<path d="M0 0 C0.64195312 0.29245605 1.28390625 0.58491211 1.9453125 0.88623047 C16.35060522 7.45273577 28.56516354 16.04546362 40 27 C40.87011719 27.79535156 41.74023438 28.59070312 42.63671875 29.41015625 C56.52006372 42.54090905 70.68487476 61.81405561 74 81 C67.91009929 83.48866135 61.77997405 85.86537067 55.625 88.1875 C54.93535156 88.44934082 54.24570312 88.71118164 53.53515625 88.98095703 C42.23781079 93.22298865 28.71971253 94.19404714 17.44921875 89.2578125 C16.64097656 88.84273438 15.83273437 88.42765625 15 88 C13.71029297 87.34644531 13.71029297 87.34644531 12.39453125 86.6796875 C4.66317958 82.39878778 -0.83658866 76.60637051 -6.4375 69.875 C-16.02136571 58.89750728 -31.71814746 53.11196905 -46 52 C-69.60645256 50.51004639 -87.97810334 58.4541039 -107 72 C-110.38403008 69.35533784 -110.78290831 66.52801948 -111.6875 62.4375 C-115.41009946 47.22705968 -122.59703598 31.82445044 -132.82421875 19.8671875 C-134 18 -134 18 -133.82006836 16.05639648 C-132.74367991 13.35725391 -131.53869711 12.7037715 -129.0546875 11.23046875 C-128.23250732 10.73740234 -127.41032715 10.24433594 -126.56323242 9.73632812 C-125.67611572 9.22521484 -124.78899902 8.71410156 -123.875 8.1875 C-122.96790283 7.65705078 -122.06080566 7.12660156 -121.1262207 6.58007812 C-84.63024588 -14.48976301 -38.67761319 -18.42413331 0 0 Z " fill="#F77B37" transform="translate(357,22)"/>
<path d="M0 0 C2.74526635 1.37263317 3.44355648 3.40592747 5 6 C5.66 6.33 6.32 6.66 7 7 C7 7.66 7 8.32 7 9 C7.5775 9.28875 8.155 9.5775 8.75 9.875 C11.875 11.4375 11.875 11.4375 15 13 C15 13.66 15 14.32 15 15 C15.8971875 15.1546875 15.8971875 15.1546875 16.8125 15.3125 C19 16 19 16 20.28125 17.35546875 C25.87326209 22.70600759 34.76732158 25.49638055 42 28 C42 28.66 42 29.32 42 30 C42.85271484 30.09087891 42.85271484 30.09087891 43.72265625 30.18359375 C47.27335648 30.56889511 50.78991867 30.96432581 54.3125 31.5625 C59.54376467 32.18315852 64.7385747 32.07775505 70 32 C70.495 34.97 70.495 34.97 71 38 C70.01 38 69.02 38 68 38 C68 38.66 68 39.32 68 40 C67.01257813 40.19335938 66.02515625 40.38671875 65.0078125 40.5859375 C63.08582031 40.97652344 63.08582031 40.97652344 61.125 41.375 C59.84882813 41.63023438 58.57265625 41.88546875 57.2578125 42.1484375 C53.94075544 42.72237896 53.94075544 42.72237896 52 45 C50.09998109 45.75184797 48.17938118 46.45206949 46.25 47.125 C36.05110071 50.94676049 26.66553764 56.39768561 18 63 C14.61596992 60.35533784 14.21709169 57.52801948 13.3125 53.4375 C9.58990054 38.22705968 2.40296402 22.82445044 -7.82421875 10.8671875 C-9 9 -9 9 -8.93359375 6.92578125 C-7.72669699 4.43624107 -6.42350031 3.60068463 -4.0625 2.1875 C-3.35222656 1.74792969 -2.64195312 1.30835938 -1.91015625 0.85546875 C-1.27980469 0.57316406 -0.64945313 0.29085938 0 0 Z " fill="#C26029" transform="translate(232,31)"/>
<path d="M0 0 C6.97826407 5.55898646 13.66747965 11.44545677 19.10302734 18.55566406 C19.64830078 19.25304688 20.19357422 19.95042969 20.75537109 20.66894531 C31.72483689 35.46901821 41.34062176 54.13306113 41.16552734 72.86816406 C41.15650391 74.12242188 41.14748047 75.37667969 41.13818359 76.66894531 C41.12078125 78.09787109 41.12078125 78.09787109 41.10302734 79.55566406 C40.77302734 79.55566406 40.44302734 79.55566406 40.10302734 79.55566406 C39.77302734 76.25566406 39.44302734 72.95566406 39.10302734 69.55566406 C38.11302734 69.55566406 37.12302734 69.55566406 36.10302734 69.55566406 C36.76302734 66.91566406 37.42302734 64.27566406 38.10302734 61.55566406 C37.11302734 61.22566406 36.12302734 60.89566406 35.10302734 60.55566406 C34.77302734 59.56566406 34.44302734 58.57566406 34.10302734 57.55566406 C34.43302734 57.22566406 34.76302734 56.89566406 35.10302734 56.55566406 C34.11302734 53.58566406 33.12302734 50.61566406 32.10302734 47.55566406 C30.12302734 47.55566406 28.14302734 47.55566406 26.10302734 47.55566406 C26.10302734 45.24566406 26.10302734 42.93566406 26.10302734 40.55566406 C26.76302734 40.55566406 27.42302734 40.55566406 28.10302734 40.55566406 C26.90403036 37.47252896 25.62602257 34.49286914 24.10302734 31.55566406 C22.45302734 31.55566406 20.80302734 31.55566406 19.10302734 31.55566406 C19.10302734 28.22233073 19.10302734 24.8889974 19.10302734 21.55566406 C17.78302734 21.88566406 16.46302734 22.21566406 15.10302734 22.55566406 C15.10302734 21.89566406 15.10302734 21.23566406 15.10302734 20.55566406 C13.78302734 20.88566406 12.46302734 21.21566406 11.10302734 21.55566406 C10.77302734 20.89566406 10.44302734 20.23566406 10.10302734 19.55566406 C10.76302734 19.55566406 11.42302734 19.55566406 12.10302734 19.55566406 C11.77302734 17.90566406 11.44302734 16.25566406 11.10302734 14.55566406 C8.46302734 14.55566406 5.82302734 14.55566406 3.10302734 14.55566406 C2.77302734 13.56566406 2.44302734 12.57566406 2.10302734 11.55566406 C2.43302734 10.89566406 2.76302734 10.23566406 3.10302734 9.55566406 C2.44302734 9.22566406 1.78302734 8.89566406 1.10302734 8.55566406 C1.10302734 8.22566406 1.10302734 7.89566406 1.10302734 7.55566406 C-1.20697266 7.55566406 -3.51697266 7.55566406 -5.89697266 7.55566406 C-5.71134766 6.52441406 -5.52572266 5.49316406 -5.33447266 4.43066406 C-5.46643872 0.54549136 -5.46643872 0.54549136 -7.90087891 -1.17480469 C-9.55029797 -2.22021114 -11.22676451 -3.22423413 -12.92822266 -4.18261719 C-13.90275391 -4.80716797 -13.90275391 -4.80716797 -14.89697266 -5.44433594 C-14.89697266 -6.10433594 -14.89697266 -6.76433594 -14.89697266 -7.44433594 C-16.31330601 -7.61381172 -17.73005798 -7.77979101 -19.14697266 -7.94433594 C-19.93587891 -8.03714844 -20.72478516 -8.12996094 -21.53759766 -8.22558594 C-24.16587662 -8.50588213 -24.16587662 -8.50588213 -27.89697266 -8.44433594 C-28.22697266 -9.10433594 -28.55697266 -9.76433594 -28.89697266 -10.44433594 C-29.49509766 -10.23808594 -30.09322266 -10.03183594 -30.70947266 -9.81933594 C-32.89697266 -9.44433594 -32.89697266 -9.44433594 -35.89697266 -11.44433594 C-35.89697266 -12.76433594 -35.89697266 -14.08433594 -35.89697266 -15.44433594 C-36.68201172 -15.49332031 -37.46705078 -15.54230469 -38.27587891 -15.59277344 C-39.32646484 -15.66753906 -40.37705078 -15.74230469 -41.45947266 -15.81933594 C-42.49201172 -15.88894531 -43.52455078 -15.95855469 -44.58837891 -16.03027344 C-47.89697266 -16.44433594 -47.89697266 -16.44433594 -51.12744141 -17.47949219 C-56.04221261 -18.7374699 -60.60154994 -18.62229984 -65.64697266 -18.50683594 C-67.51668706 -18.47240054 -69.3864869 -18.44226058 -71.25634766 -18.41699219 C-72.07586914 -18.39902588 -72.89539063 -18.38105957 -73.73974609 -18.36254883 C-75.89697266 -18.44433594 -75.89697266 -18.44433594 -78.89697266 -19.44433594 C-78.40197266 -17.95933594 -78.40197266 -17.95933594 -77.89697266 -16.44433594 C-78.76322266 -16.63511719 -79.62947266 -16.82589844 -80.52197266 -17.02246094 C-87.8252664 -17.93537266 -95.61422741 -15.08171476 -101.89697266 -11.44433594 C-103.89697266 -10.44433594 -103.89697266 -10.44433594 -106.14697266 -10.56933594 C-109.75736168 -10.40522735 -111.84963478 -9.36548373 -114.89697266 -7.44433594 C-115.35072266 -6.59871094 -115.80447266 -5.75308594 -116.27197266 -4.88183594 C-118.17237494 -2.03123251 -118.8739267 -1.91901008 -122.08447266 -1.13183594 C-123.34259766 -0.90496094 -124.60072266 -0.67808594 -125.89697266 -0.44433594 C-125.89697266 1.53566406 -125.89697266 3.51566406 -125.89697266 5.55566406 C-128.20697266 5.55566406 -130.51697266 5.55566406 -132.89697266 5.55566406 C-133.88697266 8.19566406 -134.87697266 10.83566406 -135.89697266 13.55566406 C-139.36197266 14.05066406 -139.36197266 14.05066406 -142.89697266 14.55566406 C-143.04846564 18.18451731 -143.04846564 18.18451731 -141.89697266 21.55566406 C-142.82509766 21.76191406 -143.75322266 21.96816406 -144.70947266 22.18066406 C-148.78075261 23.93690248 -148.99671325 25.67596778 -150.89697266 29.55566406 C-152.89697266 30.55566406 -154.89697266 31.55566406 -156.89697266 32.55566406 C-157.86604093 35.13980832 -157.86604093 35.13980832 -157.89697266 37.55566406 C-158.55697266 37.55566406 -159.21697266 37.55566406 -159.89697266 37.55566406 C-160.00654297 38.17054687 -160.11611328 38.78542969 -160.22900391 39.41894531 C-160.38755859 40.2271875 -160.54611328 41.03542969 -160.70947266 41.86816406 C-160.86029297 42.66867188 -161.01111328 43.46917969 -161.16650391 44.29394531 C-161.98342785 46.82335155 -163.04402021 47.72296246 -164.89697266 49.55566406 C-164.94098998 51.88858218 -164.936515 54.22266581 -164.89697266 56.55566406 C-165.51696006 58.57062313 -166.17651502 60.57440556 -166.89697266 62.55566406 C-166.89697266 63.54566406 -166.89697266 64.53566406 -166.89697266 65.55566406 C-167.88697266 66.05066406 -167.88697266 66.05066406 -168.89697266 66.55566406 C-168.56697266 67.21566406 -168.23697266 67.87566406 -167.89697266 68.55566406 C-168.37134766 69.09191406 -168.84572266 69.62816406 -169.33447266 70.18066406 C-171.17883342 72.98409242 -171.52154113 75.25186664 -171.89697266 78.55566406 C-172.22697266 78.55566406 -172.55697266 78.55566406 -172.89697266 78.55566406 C-173.09643701 72.27253705 -172.74450108 66.59721688 -170.89697266 60.55566406 C-170.40197266 60.06066406 -170.40197266 60.06066406 -169.89697266 59.55566406 C-169.677104 57.93546684 -169.45935176 56.31495587 -169.25195312 54.69311523 C-167.06950855 39.21014659 -158.41800541 25.86491751 -147.89697266 14.55566406 C-147.4512793 14.06904297 -147.00558594 13.58242188 -146.54638672 13.08105469 C-108.93334646 -27.65564917 -44.33678737 -33.75758483 0 0 Z " fill="#E0853B" transform="translate(186.89697265625,32.4443359375)"/>
<path d="M0 0 C0.98117798 0.10610596 0.98117798 0.10610596 1.98217773 0.21435547 C9.0276189 0.92257135 15.98446208 1.15248753 23.0625 1.125 C24.09310547 1.12886719 25.12371094 1.13273437 26.18554688 1.13671875 C27.16716797 1.13542969 28.14878906 1.13414063 29.16015625 1.1328125 C30.04324463 1.13168457 30.92633301 1.13055664 31.83618164 1.12939453 C34.04887423 1.13932351 34.04887423 1.13932351 36 0 C37.32 0.99 38.64 1.98 40 3 C41.32 2.34 42.64 1.68 44 1 C45.53846154 5.61538462 45.53846154 5.61538462 46 8 C45.67 8.66 45.34 9.32 45 10 C48.465 9.505 48.465 9.505 52 9 C52 10.32 52 11.64 52 13 C53.72937829 15.31278117 53.72937829 15.31278117 56 17 C56.99 17 57.98 17 59 17 C58.67 18.32 58.34 19.64 58 21 C58.99 21 59.98 21 61 21 C61.33 20.34 61.66 19.68 62 19 C61.99097656 19.7734375 61.98195313 20.546875 61.97265625 21.34375 C62.18030577 28.63856797 63.28119946 32.50171054 68.50390625 37.671875 C68.99761719 38.11015625 69.49132812 38.5484375 70 39 C69.34 40.65 68.68 42.3 68 44 C68.66 44.33 69.32 44.66 70 45 C68.68 45.33 67.36 45.66 66 46 C66.165 46.928125 66.33 47.85625 66.5 48.8125 C68.30433917 61.39132166 68.30433917 61.39132166 66 66 C65.87801471 69.23261008 65.81966878 72.20233052 66.53515625 75.3671875 C67.05943214 78.33661567 66.88698209 80.82005409 66.5625 83.8125 C66.46066406 84.78832031 66.35882813 85.76414062 66.25390625 86.76953125 C66.12822266 87.87361328 66.12822266 87.87361328 66 89 C64.515 88.505 64.515 88.505 63 88 C63.01047363 86.75500732 63.02094727 85.51001465 63.03173828 84.22729492 C63.06822219 79.56244843 63.09100281 74.89761428 63.10986328 70.23266602 C63.11985664 68.2222277 63.13345588 66.21180367 63.15087891 64.20141602 C63.30243619 46.25079358 63.19981511 29.70049176 50.03515625 15.8125 C38.41154758 5.46057213 26.0080694 2.99419487 10.92529297 3.83154297 C0.59510237 4.7354019 -10.02709636 10.35662485 -17 18 C-21.72524795 24.45178086 -24.54629211 31.43754644 -27 39 C-27.33 39.99 -27.66 40.98 -28 42 C-28.100406 43.52252218 -28.14615005 45.0489712 -28.15821838 46.57475281 C-28.17290161 47.98189545 -28.17290161 47.98189545 -28.18788147 49.41746521 C-28.19363693 50.44461136 -28.1993924 51.47175751 -28.20532227 52.5300293 C-28.22017166 54.15465591 -28.22017166 54.15465591 -28.23532104 55.81210327 C-28.26696055 59.3994527 -28.29170326 62.98681539 -28.31640625 66.57421875 C-28.33697365 69.05858203 -28.35797007 71.5429418 -28.37937927 74.02729797 C-28.42897268 79.90268324 -28.47423231 85.77808945 -28.51740164 91.65352517 C-28.57163583 98.99887146 -28.63258212 106.3441583 -28.69335938 113.68945312 C-28.80096786 126.79292909 -28.90259343 139.89644443 -29 153 C-29.33 153 -29.66 153 -30 153 C-30.02505615 152.02240723 -30.0501123 151.04481445 -30.07592773 150.03759766 C-30.17101654 146.3659439 -30.27097752 142.69443539 -30.37231445 139.02294922 C-30.41528385 137.44225493 -30.45698045 135.86152545 -30.49731445 134.28076172 C-30.55595126 131.99175463 -30.61936159 129.70291865 -30.68359375 127.4140625 C-30.70030624 126.72196686 -30.71701874 126.02987122 -30.73423767 125.31680298 C-30.84175772 121.65134927 -31.09134618 118.05324674 -31.51367188 114.41015625 C-32.2261232 107.62551166 -32.12427505 100.83728355 -32.09765625 94.0234375 C-32.09578687 92.60283458 -32.09436543 91.182231 -32.09336853 89.7616272 C-32.08958425 86.05619468 -32.07978982 82.35080252 -32.06866455 78.64538574 C-32.05836159 74.85083563 -32.05385204 71.05627888 -32.04882812 67.26171875 C-32.03816311 59.84112761 -32.02113699 52.4205695 -32 45 C-32.66 45 -33.32 45 -34 45 C-34 41.04 -34 37.08 -34 33 C-33.01 33.66 -32.02 34.32 -31 35 C-27.89991379 32.46356583 -27.0325325 29.81242771 -26 26 C-26 25.01 -26 24.02 -26 23 C-25.6937566 21.66018514 -25.36548445 20.32488113 -25 19 C-26.65 19.33 -28.3 19.66 -30 20 C-30 20.66 -30 21.32 -30 22 C-30.556875 22.04125 -31.11375 22.0825 -31.6875 22.125 C-34.35351296 22.90843788 -34.35351296 22.90843788 -36.4375 26.0625 C-39 29 -39 29 -41.625 29.1875 C-42.40875 29.125625 -43.1925 29.06375 -44 29 C-45.81476003 30.39585785 -45.81476003 30.39585785 -47 32 C-47.66 31.67 -48.32 31.34 -49 31 C-47.60026042 29.86067708 -46.20052083 28.72135417 -44.80078125 27.58203125 C-42.8473911 25.92011734 -42.8473911 25.92011734 -40.6953125 23.515625 C-37.77278918 20.78793657 -35.22977426 19.48820843 -31.5625 17.9375 C-26.29347585 15.64835176 -26.29347585 15.64835176 -21.4375 12.625 C-19 11 -19 11 -15 11 C-15 10.34 -15 9.68 -15 9 C-13.7934375 8.6596875 -13.7934375 8.6596875 -12.5625 8.3125 C-11.716875 7.879375 -10.87125 7.44625 -10 7 C-9.10613836 4.45224694 -9.10613836 4.45224694 -9 2 C-7.68 1.67 -6.36 1.34 -5 1 C-4.505 2.485 -4.505 2.485 -4 4 C-3.01 3.67 -2.02 3.34 -1 3 C-0.67 2.01 -0.34 1.02 0 0 Z " fill="#EA7951" transform="translate(103,71)"/>
<path d="M0 0 C0.99 0.495 0.99 0.495 2 1 C0.71580959 2.67243402 -0.57757185 4.33781447 -1.875 6 C-2.95394531 7.3921875 -2.95394531 7.3921875 -4.0546875 8.8125 C-4.69664062 9.534375 -5.33859375 10.25625 -6 11 C-6.66 11 -7.32 11 -8 11 C-8.21398437 11.55429687 -8.42796875 12.10859375 -8.6484375 12.6796875 C-10.45405174 15.77949924 -12.90526278 17.85403359 -15.625 20.125 C-16.19549072 20.60291992 -16.76598145 21.08083984 -17.35375977 21.57324219 C-40.71562477 40.65005511 -69.81490793 52.14500355 -100 53 C-101.41539062 53.05994141 -101.41539062 53.05994141 -102.859375 53.12109375 C-137.44728364 53.93324078 -170.04769345 41.68206437 -196 19 C-196.80824219 18.31292969 -197.61648437 17.62585938 -198.44921875 16.91796875 C-202.47398023 13.46917663 -202.47398023 13.46917663 -204 12 C-204 11.67 -204 11.34 -204 11 C-201.8125 10.6875 -201.8125 10.6875 -199 11 C-196.1875 13.375 -196.1875 13.375 -194 16 C-194 16.66 -194 17.32 -194 18 C-193.34 18 -192.68 18 -192 18 C-192 18.66 -192 19.32 -192 20 C-190.88625 19.87625 -190.88625 19.87625 -189.75 19.75 C-185.20842443 20.16287051 -183.48758416 23.43542887 -180.625 26.75 C-178.18077538 29.33895384 -178.18077538 29.33895384 -174.875 29 C-173.92625 29 -172.9775 29 -172 29 C-171.566875 29.7425 -171.13375 30.485 -170.6875 31.25 C-168.16412187 35.36217177 -164.3958162 36.35041698 -160 38 C-159.67 37.01 -159.34 36.02 -159 35 C-158.01 35.99 -157.02 36.98 -156 38 C-156.495 38.99 -156.495 38.99 -157 40 C-156.22914063 40.20496094 -155.45828125 40.40992188 -154.6640625 40.62109375 C-153.66117188 40.89050781 -152.65828125 41.15992188 -151.625 41.4375 C-150.62726563 41.70433594 -149.62953125 41.97117187 -148.6015625 42.24609375 C-146 43 -146 43 -144 44 C-144 44.66 -144 45.32 -144 46 C-143.29875 45.814375 -142.5975 45.62875 -141.875 45.4375 C-138.66111302 44.94843024 -136.16439664 45.33768442 -133 46 C-133 46.66 -133 47.32 -133 48 C-131.99324219 47.97808594 -130.98648438 47.95617187 -129.94921875 47.93359375 C-126.11748297 47.99802452 -122.59283683 48.46099224 -118.8125 49.0625 C-105.91797539 50.84773153 -92.99135765 49.66567313 -80.1875 47.625 C-79.4651416 47.5113208 -78.7427832 47.3976416 -77.99853516 47.28051758 C-73.28317149 46.44998943 -69.35543759 44.98351082 -65 43 C-62.68357772 42.20062115 -60.35627752 41.47038657 -58.015625 40.74609375 C-55.73449498 39.99009767 -55.73449498 39.99009767 -53 38 C-50.3125 37.875 -50.3125 37.875 -48 38 C-47.67 37.01 -47.34 36.02 -47 35 C-43.535 34.505 -43.535 34.505 -40 34 C-40 33.34 -40 32.68 -40 32 C-39.21625 31.690625 -38.4325 31.38125 -37.625 31.0625 C-35.07669872 30.07124962 -35.07669872 30.07124962 -33 29 C-33 28.34 -33 27.68 -33 27 C-32.071875 26.773125 -31.14375 26.54625 -30.1875 26.3125 C-26.3949626 24.75086695 -26.01390707 23.4148859 -24 20 C-21.3125 19.1875 -21.3125 19.1875 -19 19 C-18.67 18.01 -18.34 17.02 -18 16 C-16.40625 14.7890625 -16.40625 14.7890625 -14.5 13.625 C-11.46442329 11.59550066 -11.46442329 11.59550066 -10.0625 8.1875 C-10.041875 7.465625 -10.02125 6.74375 -10 6 C-8.68 6 -7.36 6 -6 6 C-5.67 5.01 -5.34 4.02 -5 3 C-3 1.875 -3 1.875 -1 1 C-0.67 0.67 -0.34 0.34 0 0 Z " fill="#380541" transform="translate(408,245)"/>
<path d="M0 0 C1.18589722 0.01184326 1.18589722 0.01184326 2.39575195 0.02392578 C17.53333391 0.2435576 17.53333391 0.2435576 24.1875 2.3125 C27.25338246 3.18846642 28.34509637 3.22496558 31.25 2.1875 C32.24 2.1875 33.23 2.1875 34.25 2.1875 C34.745 4.1675 34.745 4.1675 35.25 6.1875 C35.889375 6.290625 36.52875 6.39375 37.1875 6.5 C37.868125 6.726875 38.54875 6.95375 39.25 7.1875 C39.745 8.6725 39.745 8.6725 40.25 10.1875 C42.23 9.8575 44.21 9.5275 46.25 9.1875 C46.745 12.1575 46.745 12.1575 47.25 15.1875 C47.91 15.1875 48.57 15.1875 49.25 15.1875 C49.745 16.1775 49.745 16.1775 50.25 17.1875 C52.77733235 17.84305119 52.77733235 17.84305119 55.25 18.1875 C55.25 19.8375 55.25 21.4875 55.25 23.1875 C57.56 23.8475 59.87 24.5075 62.25 25.1875 C63.07638376 28.07984315 63.25 30.07492431 63.25 33.1875 C64.013125 33.331875 64.77625 33.47625 65.5625 33.625 C68.25 34.1875 68.25 34.1875 71.25 35.1875 C71.58 34.1975 71.91 33.2075 72.25 32.1875 C74.23 32.6825 74.23 32.6825 76.25 33.1875 C76.25 34.5075 76.25 35.8275 76.25 37.1875 C77.735 37.6825 77.735 37.6825 79.25 38.1875 C79.25 38.8475 79.25 39.5075 79.25 40.1875 C81.83340384 40.21453562 84.41652308 40.23435611 87 40.25 C88.09441406 40.26256836 88.09441406 40.26256836 89.2109375 40.27539062 C93.2624599 40.32397279 93.2624599 40.32397279 97.24316406 39.68139648 C99.25 39.1875 99.25 39.1875 103.25 39.1875 C103.745 38.1975 103.745 38.1975 104.25 37.1875 C105.24 36.5275 106.23 35.8675 107.25 35.1875 C106.92 34.5275 106.59 33.8675 106.25 33.1875 C107.57 33.1875 108.89 33.1875 110.25 33.1875 C110.25 33.8475 110.25 34.5075 110.25 35.1875 C110.99765625 34.98253906 111.7453125 34.77757812 112.515625 34.56640625 C113.50046875 34.29699219 114.4853125 34.02757812 115.5 33.75 C116.47453125 33.48316406 117.4490625 33.21632812 118.453125 32.94140625 C120.71372653 32.33205416 122.97622009 31.74511745 125.25 31.1875 C125.13658466 28.77872743 125.13658466 28.77872743 124.25 26.1875 C123.425 25.81625 122.6 25.445 121.75 25.0625 C119.25 23.1875 119.25 23.1875 118.8046875 20.69921875 C118.68661796 18.76133831 118.61234967 16.82020051 118.5859375 14.87890625 C118.19826452 11.77301461 117.11715692 10.61686715 115.25 8.1875 C115.58 7.1975 115.91 6.2075 116.25 5.1875 C118.69038147 7.39846635 120.06906237 9.49323977 121.4765625 12.4609375 C122.064375 13.6984375 122.064375 13.6984375 122.6640625 14.9609375 C123.06367188 15.81945312 123.46328125 16.67796875 123.875 17.5625 C124.48601562 18.83867188 124.48601562 18.83867188 125.109375 20.140625 C127.00919775 24.17932105 128.49642188 27.76254387 129.25 32.1875 C123.16009929 34.67616135 117.02997405 37.05287067 110.875 39.375 C110.18535156 39.63684082 109.49570312 39.89868164 108.78515625 40.16845703 C97.48781079 44.41048865 83.96971253 45.38154714 72.69921875 40.4453125 C71.48685547 39.82269531 71.48685547 39.82269531 70.25 39.1875 C69.39019531 38.75179687 68.53039062 38.31609375 67.64453125 37.8671875 C59.91317958 33.58628778 54.41341134 27.79387051 48.8125 21.0625 C39.25892145 10.11969862 23.50922205 4.23673106 9.25 3.1875 C0.54701119 2.82461327 -8.1183683 2.93198993 -16.75 4.1875 C-15.75 2.1875 -15.75 2.1875 -12.734375 1.07421875 C-8.47710929 -0.03349488 -4.37627931 -0.07550935 0 0 Z " fill="#D56B58" transform="translate(301.75,70.8125)"/>
<path d="M0 0 C-0.72445312 0.4846875 -1.44890625 0.969375 -2.1953125 1.46875 C-13.84948726 9.54897783 -21.160362 19.84424531 -24 34 C-24.29839488 37.66145227 -24.31101486 41.31186635 -24.31884766 44.98413086 C-24.32889328 46.06779938 -24.3389389 47.1514679 -24.34928894 48.26797485 C-24.38006714 51.83359265 -24.3971414 55.39913554 -24.4140625 58.96484375 C-24.43277843 61.44349306 -24.45235216 63.92213603 -24.4727478 66.40077209 C-24.5240299 72.91248838 -24.56367678 79.42422531 -24.60089111 85.93603516 C-24.63990328 92.58566868 -24.69203664 99.23520855 -24.7421875 105.88476562 C-24.83890043 118.92311584 -24.92369449 131.9615152 -25 145 C-25.33 145 -25.66 145 -26 145 C-26.02505615 144.02240723 -26.0501123 143.04481445 -26.07592773 142.03759766 C-26.17101654 138.3659439 -26.27097752 134.69443539 -26.37231445 131.02294922 C-26.41528385 129.44225493 -26.45698045 127.86152545 -26.49731445 126.28076172 C-26.55595126 123.99175463 -26.61936159 121.70291865 -26.68359375 119.4140625 C-26.70030624 118.72196686 -26.71701874 118.02987122 -26.73423767 117.31680298 C-26.84175772 113.65134927 -27.09134618 110.05324674 -27.51367188 106.41015625 C-28.2261232 99.62551166 -28.12427505 92.83728355 -28.09765625 86.0234375 C-28.09578687 84.60283458 -28.09436543 83.182231 -28.09336853 81.7616272 C-28.08958425 78.05619468 -28.07978982 74.35080252 -28.06866455 70.64538574 C-28.05836159 66.85083563 -28.05385204 63.05627888 -28.04882812 59.26171875 C-28.03816311 51.84112761 -28.02113699 44.4205695 -28 37 C-28.66 37 -29.32 37 -30 37 C-30 33.04 -30 29.08 -30 25 C-29.01 25.66 -28.02 26.32 -27 27 C-23.89991379 24.46356583 -23.0325325 21.81242771 -22 18 C-22 17.01 -22 16.02 -22 15 C-21.6937566 13.66018514 -21.36548445 12.32488113 -21 11 C-22.65 11.33 -24.3 11.66 -26 12 C-26 12.66 -26 13.32 -26 14 C-26.556875 14.04125 -27.11375 14.0825 -27.6875 14.125 C-30.35351296 14.90843788 -30.35351296 14.90843788 -32.4375 18.0625 C-35 21 -35 21 -37.625 21.1875 C-38.40875 21.125625 -39.1925 21.06375 -40 21 C-41.81476003 22.39585785 -41.81476003 22.39585785 -43 24 C-43.66 23.67 -44.32 23.34 -45 23 C-43.60026042 21.86067708 -42.20052083 20.72135417 -40.80078125 19.58203125 C-38.8473911 17.92011734 -38.8473911 17.92011734 -36.6953125 15.515625 C-33.77278918 12.78793657 -31.22977426 11.48820843 -27.5625 9.9375 C-22.41151258 7.71939577 -22.41151258 7.71939577 -17.6875 4.75 C-14.18140934 2.46696422 -11.07978402 1.92124155 -7 1 C-6.236875 0.608125 -5.47375 0.21625 -4.6875 -0.1875 C-3 -1 -3 -1 0 0 Z " fill="#D96833" transform="translate(99,79)"/>
<path d="M0 0 C2.22877966 0.79710702 4.46924828 1.55200369 6.71337891 2.3046875 C8.17640431 2.81284735 9.63867044 3.32319948 11.10009766 3.8359375 C11.79248535 4.06869385 12.48487305 4.3014502 13.19824219 4.54125977 C17.79270597 6.21984961 17.79270597 6.21984961 19.31884766 8.50390625 C19.07246663 12.08259071 17.39322096 14.92206924 15.72509766 18.0234375 C14.97974612 19.45413555 14.23497131 20.88513417 13.49072266 22.31640625 C13.10464844 23.05036621 12.71857422 23.78432617 12.32080078 24.54052734 C11.1879917 26.7244801 10.097594 28.92411177 9.02197266 31.13671875 C8.67835693 31.84086914 8.33474121 32.54501953 7.98071289 33.27050781 C7.3308031 34.6053553 6.68424265 35.94184105 6.04174805 37.28027344 C2.65063339 44.1648557 -0.41749337 49.83998511 -7.83740234 52.7734375 C-7.50740234 51.4534375 -7.17740234 50.1334375 -6.83740234 48.7734375 C-7.82740234 48.7734375 -8.81740234 48.7734375 -9.83740234 48.7734375 C-8.83740234 46.7734375 -8.83740234 46.7734375 -5.83740234 44.7734375 C-3.14990234 44.6484375 -3.14990234 44.6484375 -0.83740234 44.7734375 C-0.77681641 43.85820312 -0.71623047 42.94296875 -0.65380859 42 C-0.57001953 40.81148437 -0.48623047 39.62296875 -0.39990234 38.3984375 C-0.31869141 37.21507812 -0.23748047 36.03171875 -0.15380859 34.8125 C0.16259766 31.7734375 0.16259766 31.7734375 1.16259766 29.7734375 C2.09072266 29.5465625 3.01884766 29.3196875 3.97509766 29.0859375 C8.42994461 27.25158875 9.10836948 25.03991141 11.16259766 20.7734375 C10.50259766 20.4434375 9.84259766 20.1134375 9.16259766 19.7734375 C9.49259766 18.1234375 9.82259766 16.4734375 10.16259766 14.7734375 C9.17259766 15.2684375 9.17259766 15.2684375 8.16259766 15.7734375 C7.96173323 12.05744559 8.01065396 11.00135305 10.16259766 7.7734375 C5.94153819 4.17772018 2.63007056 3.7734375 -2.83740234 3.7734375 C-3.16740234 4.1034375 -3.49740234 4.4334375 -3.83740234 4.7734375 C-5.83698598 4.81424533 -7.83785488 4.81598106 -9.83740234 4.7734375 C-9.83740234 4.1134375 -9.83740234 3.4534375 -9.83740234 2.7734375 C-11.48740234 3.1034375 -13.13740234 3.4334375 -14.83740234 3.7734375 C-15.16740234 2.1234375 -15.49740234 0.4734375 -15.83740234 -1.2265625 C-18.47740234 -1.2265625 -21.11740234 -1.2265625 -23.83740234 -1.2265625 C-23.83740234 -1.8865625 -23.83740234 -2.5465625 -23.83740234 -3.2265625 C-15.21313988 -5.32043392 -8.06131196 -2.89945682 0 0 Z M1.16259766 33.7734375 C2.16259766 35.7734375 2.16259766 35.7734375 2.16259766 35.7734375 Z " fill="#E63463" transform="translate(412.83740234375,195.2265625)"/>
<path d="M0 0 C0.33 0 0.66 0 1 0 C1.01981934 0.58378418 1.03963867 1.16756836 1.06005859 1.76904297 C1.15662861 4.47140268 1.26575973 7.17312394 1.375 9.875 C1.4059375 10.7928125 1.436875 11.710625 1.46875 12.65625 C1.70283204 18.19619156 2.33910644 23.40673869 3.58447266 28.81298828 C4 31 4 31 4 35 C5.65 35.66 7.3 36.32 9 37 C9 38.65 9 40.3 9 42 C9.55429687 42.14695312 10.10859375 42.29390625 10.6796875 42.4453125 C12.93464366 43.14346619 14.94088536 43.83932995 17 45 C17.268125 45.99 17.53625 46.98 17.8125 48 C18.204375 48.99 18.59625 49.98 19 51 C22.5701022 52.47615252 26.21259075 53.27798553 30 54 C30.33 53.67 30.66 53.34 31 53 C32.50112962 53.08637452 34.00102282 53.19452494 35.5 53.3125 C40.92476845 53.39066669 44.0154127 51.66567103 48.3828125 48.60546875 C48.91648438 48.07566406 49.45015625 47.54585938 50 47 C50 46.01 50 45.02 50 44 C51.65 43.34 53.3 42.68 55 42 C54.67 41.01 54.34 40.02 54 39 C54.9375 36.8125 54.9375 36.8125 56 35 C55.34 35 54.68 35 54 35 C54 34.01 54 33.02 54 32 C54.99 32.33 55.98 32.66 57 33 C57.33 31.35 57.66 29.7 58 28 C58.99 27.67 59.98 27.34 61 27 C62.20882096 24.99983534 62.20882096 24.99983534 63 23 C63.79143705 32.25101977 62.13749207 38.61285931 56.4609375 46.00390625 C50.93757879 52.0638946 43.23568495 56.23311133 35.0625 57.23828125 C25.70457039 57.57502493 17.63001167 54.82993632 10.5 48.75 C2.2551284 40.66368363 -0.07895178 31.57259341 -0.1953125 20.21484375 C-0.18216421 17.78898491 -0.15852857 15.36316276 -0.125 12.9375 C-0.11597656 11.69033203 -0.10695313 10.44316406 -0.09765625 9.15820312 C-0.07426209 6.10526496 -0.04148174 3.05273694 0 0 Z " fill="#670D5B" transform="translate(11,236)"/>
<path d="M0 0 C4.44165376 0.41097152 7.23078331 2.28343094 10.875 4.75 C26.87509434 15.11216514 46.70108862 17.43806772 65.25 13.875 C74.01836125 11.7288976 82.78388728 8.48555175 90 3 C90.66 3 91.32 3 92 3 C88.58717435 10.3507014 88.58717435 10.3507014 84.25 12.125 C81.92755414 12.75027389 79.59222927 13.32847984 77.25 13.875 C76.1775 14.24625 75.105 14.6175 74 15 C73.5359375 15.99 73.5359375 15.99 73.0625 17 C72 19 72 19 70.1484375 19.73828125 C68.1234325 20.26421011 66.06100666 20.6401417 64 21 C63.67 20.67 63.34 20.34 63 20 C62.01 20.495 62.01 20.495 61 21 C61 20.34 61 19.68 61 19 C59.35 19.66 57.7 20.32 56 21 C55.505 20.01 55.505 20.01 55 19 C50.20537026 18.90215041 45.73712067 19.29820435 41 20 C39.33378384 20.03874921 37.66605828 20.0450286 36 20 C34.68 20 33.36 20 32 20 C31 19 30 18 29 17 C27.68 17 26.36 17 25 17 C25 15.68 25 14.36 25 13 C23.9275 13.04125 22.855 13.0825 21.75 13.125 C18 13 18 13 15.8125 11.875 C14.9153125 11.441875 14.9153125 11.441875 14 11 C11.93330603 11.90833725 11.93330603 11.90833725 10 13 C9.01 12.67 8.02 12.34 7 12 C7 11.01 7 10.02 7 9 C5.72239767 5.75685563 5.03061766 5.02041177 2 3 C1.01 3.495 1.01 3.495 0 4 C-0.33 3.01 -0.66 2.02 -1 1 C-0.67 0.67 -0.34 0.34 0 0 Z " fill="#C71760" transform="translate(254,219)"/>
<path d="M0 0 C20.12814757 9.00840171 33.20393985 32.3423651 41 52 C44.58272014 61.74193948 45.57143397 70.69831544 45 81 C44.67 81 44.34 81 44 81 C43.67 77.7 43.34 74.4 43 71 C42.01 71 41.02 71 40 71 C40.66 68.36 41.32 65.72 42 63 C41.01 62.67 40.02 62.34 39 62 C38.67 61.01 38.34 60.02 38 59 C38.33 58.67 38.66 58.34 39 58 C38.01 55.03 37.02 52.06 36 49 C34.02 49 32.04 49 30 49 C30 46.69 30 44.38 30 42 C30.66 42 31.32 42 32 42 C30.80100302 38.9168649 29.52299523 35.93720508 28 33 C26.35 33 24.7 33 23 33 C23 29.66666667 23 26.33333333 23 23 C21.68 23.33 20.36 23.66 19 24 C19 23.34 19 22.68 19 22 C17.68 22.33 16.36 22.66 15 23 C14.67 22.34 14.34 21.68 14 21 C14.66 21 15.32 21 16 21 C15.67 19.35 15.34 17.7 15 16 C12.36 16 9.72 16 7 16 C6.67 15.01 6.34 14.02 6 13 C6.33 12.34 6.66 11.68 7 11 C6.34 10.67 5.68 10.34 5 10 C5.66 9.67 6.32 9.34 7 9 C5.94780811 5.84342432 5.44425999 5.30692377 2.9375 3.375 C1.968125 2.59125 0.99875 1.8075 0 1 C0 0.67 0 0.34 0 0 Z " fill="#E27848" transform="translate(183,31)"/>
<path d="M0 0 C0.33 0 0.66 0 1 0 C1.97636686 7.89010168 2.16339688 15.70062452 2.2109375 23.64453125 C2.23182714 25.61147517 2.25273458 27.57841908 2.27463722 29.54535198 C2.3272564 34.34144863 2.37191237 39.13754141 2.40136719 43.93383789 C2.41841018 46.63903131 2.44323519 49.34395006 2.47622681 52.04899597 C2.50677561 54.57778315 2.52651819 57.1067338 2.53329468 59.63569641 C2.69576155 71.09010463 4.58886211 81.56162556 10.1875 91.625 C14 98.66243433 14 98.66243433 14 102 C13.34 100.68 12.68 99.36 12 98 C11.34 98 10.68 98 10 98 C5.42857143 90.71428571 5.42857143 90.71428571 6 86 C5.34 86 4.68 86 4 86 C-0.01854754 74.22900365 -1.40799517 63.45554884 -1.07421875 51.07421875 C-1.04610097 49.59066834 -1.01941997 48.10709009 -0.99409485 46.62348938 C-0.92444985 42.76483104 -0.83561693 38.90685805 -0.74243164 35.04870605 C-0.65041099 31.09324947 -0.57702573 27.13744873 -0.50195312 23.18164062 C-0.35261112 15.45397914 -0.18294512 7.72694689 0 0 Z " fill="#CB6062" transform="translate(228,103)"/>
<path d="M0 0 C0.65411865 0.0707373 1.3082373 0.14147461 1.98217773 0.21435547 C9.0276189 0.92257135 15.98446208 1.15248753 23.0625 1.125 C24.09310547 1.12886719 25.12371094 1.13273437 26.18554688 1.13671875 C27.16716797 1.13542969 28.14878906 1.13414063 29.16015625 1.1328125 C30.04324463 1.13168457 30.92633301 1.13055664 31.83618164 1.12939453 C34.04887423 1.13932351 34.04887423 1.13932351 36 0 C37.32 0.99 38.64 1.98 40 3 C41.32 2.34 42.64 1.68 44 1 C45.53846154 5.61538462 45.53846154 5.61538462 46 8 C45.67 8.66 45.34 9.32 45 10 C40.68800692 9.4436138 37.15973544 7.79480289 33.28125 5.9375 C22.92045028 1.6796371 9.21604865 3.08706061 -1 7 C-2.85625 7.5259375 -2.85625 7.5259375 -4.75 8.0625 C-7.86495992 8.96104613 -10.93230725 9.95249516 -14 11 C-14.33 10.34 -14.66 9.68 -15 9 C-14.195625 8.773125 -13.39125 8.54625 -12.5625 8.3125 C-11.716875 7.879375 -10.87125 7.44625 -10 7 C-9.10613836 4.45224694 -9.10613836 4.45224694 -9 2 C-7.68 1.67 -6.36 1.34 -5 1 C-4.67 1.99 -4.34 2.98 -4 4 C-3.01 3.67 -2.02 3.34 -1 3 C-0.67 2.01 -0.34 1.02 0 0 Z " fill="#DE7A48" transform="translate(103,71)"/>
<path d="M0 0 C15.74014299 0.6964665 31.28415109 7.87450843 44 17 C45.38232443 18.62626404 46.71937515 20.2925002 48 22 C49.31494512 23.35147138 50.64264858 24.69112542 52 26 C49.03 26.33 46.06 26.66 43 27 C42 23 42 23 41.875 21 C40.59765197 18.08034737 38.39649503 17.36553963 35.59375 16.02734375 C34 15 34 15 33 12 C31.58366664 11.83052421 30.16691467 11.66454493 28.75 11.5 C27.96109375 11.4071875 27.1721875 11.314375 26.359375 11.21875 C23.73109603 10.93845381 23.73109603 10.93845381 20 11 C19.67 10.34 19.34 9.68 19 9 C18.401875 9.20625 17.80375 9.4125 17.1875 9.625 C15 10 15 10 12 8 C12 6.68 12 5.36 12 4 C11.21753906 3.87882812 10.43507812 3.75765625 9.62890625 3.6328125 C8.61699219 3.46523438 7.60507813 3.29765625 6.5625 3.125 C5.04849609 2.88136719 5.04849609 2.88136719 3.50390625 2.6328125 C2.67761719 2.42398437 1.85132813 2.21515625 1 2 C0.67 1.34 0.34 0.68 0 0 Z " fill="#DE813A" transform="translate(139,13)"/>
<path d="M0 0 C2 2 2 2 2.9375 5.0625 C3.4634375 6.5165625 3.4634375 6.5165625 4 8 C4.99 8.33 5.98 8.66 7 9 C7 8.34 7 7.68 7 7 C9.99332739 7.9977758 10.94766315 8.7522025 13 11 C13 10.34 13 9.68 13 9 C14.546875 8.6596875 14.546875 8.6596875 16.125 8.3125 C21.48504915 6.99885647 26.58076898 4.98793157 31.73046875 3.0234375 C34.73345297 2.08343527 36.89015226 1.77744969 40 2 C37.50879497 3.25515957 35.00619992 4.48194318 32.49609375 5.69921875 C25.13775709 9.29126321 18.05865666 12.99810192 11.234375 17.5546875 C9.2057466 18.86691216 7.18218086 19.9689696 5 21 C3.23288001 18.34932001 2.59849878 16.99543645 1.89453125 14.0234375 C1.71599609 13.270625 1.53746094 12.5178125 1.35351562 11.7421875 C1.17498047 10.96101563 0.99644531 10.17984375 0.8125 9.375 C0.52729492 8.19164063 0.52729492 8.19164063 0.23632812 6.984375 C-0.22554972 5.00051593 -0.61877152 3.00092298 -1 1 C-0.67 0.67 -0.34 0.34 0 0 Z " fill="#AD5934" transform="translate(244,73)"/>
<path d="M0 0 C2 2 2 2 2.24609566 3.88591957 C2.24425207 4.65838209 2.24240849 5.43084461 2.24050903 6.22671509 C2.24325836 7.11295059 2.24600769 7.9991861 2.24884033 8.91227722 C2.24164978 9.88691422 2.23445923 10.86155121 2.22705078 11.86572266 C2.22734283 12.89013962 2.22763489 13.91455658 2.22793579 14.97001648 C2.22653849 18.36811693 2.21095839 21.76600019 2.1953125 25.1640625 C2.1915838 27.51532878 2.18873615 29.86659661 2.18673706 32.21786499 C2.17908938 38.41573351 2.15943115 44.61350875 2.1373291 50.81134033 C2.11689509 57.13202655 2.10774058 63.45272779 2.09765625 69.7734375 C2.07618633 82.18233272 2.04203673 94.59115861 2 107 C1.67 107 1.34 107 1 107 C0.97494385 106.02240723 0.9498877 105.04481445 0.92407227 104.03759766 C0.82898346 100.3659439 0.72902248 96.69443539 0.62768555 93.02294922 C0.58471615 91.44225493 0.54301955 89.86152545 0.50268555 88.28076172 C0.44404874 85.99175463 0.38063841 83.70291865 0.31640625 81.4140625 C0.29969376 80.72196686 0.28298126 80.02987122 0.26576233 79.31680298 C0.15797516 75.64224302 -0.09182237 72.03320554 -0.51147461 68.38061523 C-1.20675751 61.75989824 -1.14315707 55.14685515 -1.1328125 48.49609375 C-1.13348752 47.12272627 -1.13445919 45.7493589 -1.13571167 44.37599182 C-1.13717487 41.52107588 -1.13507583 38.66619153 -1.13037109 35.8112793 C-1.1246256 32.1459606 -1.1279916 28.48071437 -1.13394356 24.81539822 C-1.13754511 21.99051866 -1.13641332 19.16565651 -1.13381577 16.34077644 C-1.13282327 14.33040952 -1.13586279 12.32004193 -1.13894653 10.30967712 C-1.13579437 9.10074295 -1.13264221 7.89180878 -1.12939453 6.64624023 C-1.12859894 5.57719955 -1.12780334 4.50815887 -1.12698364 3.40672302 C-1 1 -1 1 0 0 Z " fill="#D76C6E" transform="translate(72,117)"/>
<path d="M0 0 C1.18589722 0.01184326 1.18589722 0.01184326 2.39575195 0.02392578 C17.53333391 0.2435576 17.53333391 0.2435576 24.1875 2.3125 C27.25338246 3.18846642 28.34509637 3.22496558 31.25 2.1875 C32.24 2.1875 33.23 2.1875 34.25 2.1875 C34.745 4.1675 34.745 4.1675 35.25 6.1875 C36.57 6.5175 37.89 6.8475 39.25 7.1875 C39.745 9.6625 39.745 9.6625 40.25 12.1875 C41.24 12.1875 42.23 12.1875 43.25 12.1875 C43.25 12.8475 43.25 13.5075 43.25 14.1875 C44.24 14.1875 45.23 14.1875 46.25 14.1875 C48.4375 16.6875 48.4375 16.6875 50.25 19.1875 C49.92 19.8475 49.59 20.5075 49.25 21.1875 C48.30125 20.32125 47.3525 19.455 46.375 18.5625 C29.89140108 4.5282712 10.08180143 1.85575787 -10.8359375 3.41796875 C-12.81224026 3.63305533 -14.78272933 3.90135154 -16.75 4.1875 C-15.75 2.1875 -15.75 2.1875 -12.734375 1.07421875 C-8.47710929 -0.03349488 -4.37627931 -0.07550935 0 0 Z " fill="#C56D4B" transform="translate(301.75,70.8125)"/>
<path d="M0 0 C-0.66 2.31 -1.32 4.62 -2 7 C-3.8253125 6.6596875 -3.8253125 6.6596875 -5.6875 6.3125 C-8.69761996 5.94618911 -9.86590606 5.94514339 -12.75 7.125 C-15.23040443 9.19200369 -17.03529511 11.44588364 -19 14 C-19.99 14.66 -20.98 15.32 -22 16 C-23.19232613 18.05003955 -23.19232613 18.05003955 -24 20 C-24.66 20 -25.32 20 -26 20 C-26.1546875 20.86625 -26.1546875 20.86625 -26.3125 21.75 C-27.09792798 24.32049158 -28.30504197 25.93657284 -30 28 C-29.67 28.66 -29.34 29.32 -29 30 C-31.31 30.33 -33.62 30.66 -36 31 C-36 26.16828528 -35.16752303 25.63640144 -31.9375 22.25 C-29.01334357 19.14308379 -26.16372012 16.03156126 -23.4375 12.75 C-17.39841378 5.83021371 -9.58085747 -0.68434696 0 0 Z " fill="#D72B62" transform="translate(383,193)"/>
<path d="M0 0 C2.44038147 2.21096635 3.81906237 4.30573977 5.2265625 7.2734375 C5.6184375 8.0984375 6.0103125 8.9234375 6.4140625 9.7734375 C7.01347656 11.06121094 7.01347656 11.06121094 7.625 12.375 C8.03234375 13.22578125 8.4396875 14.0765625 8.859375 14.953125 C10.75919775 18.99182105 12.24642188 22.57504387 13 27 C10.69532418 27.9312347 8.38832122 28.85595957 6.078125 29.7734375 C3.89665028 30.64270535 1.7200128 31.52415765 -0.453125 32.4140625 C-1.60296875 32.87554687 -2.7528125 33.33703125 -3.9375 33.8125 C-5.01902344 34.25207031 -6.10054688 34.69164062 -7.21484375 35.14453125 C-10 36 -10 36 -13 35 C-12 32 -12 32 -9 30 C-9.33 29.34 -9.66 28.68 -10 28 C-8.68 28 -7.36 28 -6 28 C-6 28.66 -6 29.32 -6 30 C-5.25234375 29.79503906 -4.5046875 29.59007813 -3.734375 29.37890625 C-2.74953125 29.10949219 -1.7646875 28.84007813 -0.75 28.5625 C0.22453125 28.29566406 1.1990625 28.02882813 2.203125 27.75390625 C4.46372653 27.14455416 6.72622009 26.55761745 9 26 C8.88658466 23.59122743 8.88658466 23.59122743 8 21 C7.175 20.62875 6.35 20.2575 5.5 19.875 C3 18 3 18 2.5546875 15.51171875 C2.43661796 13.57383831 2.36234967 11.63270051 2.3359375 9.69140625 C1.94826452 6.58551461 0.86715692 5.42936715 -1 3 C-0.67 2.01 -0.34 1.02 0 0 Z " fill="#EA7561" transform="translate(418,76)"/>
<path d="M0 0 C4.44165376 0.41097152 7.23078331 2.28343094 10.875 4.75 C17.87756124 9.30018748 25.01728453 11.64084697 33 14 C38.85448393 15.85448393 38.85448393 15.85448393 40 17 C41.34747084 17.23075082 42.70377565 17.41153063 44.0625 17.5625 C45.361875 17.706875 46.66125 17.85125 48 18 C46 20 46 20 43.7578125 20.1953125 C42.88898438 20.17210937 42.02015625 20.14890625 41.125 20.125 C40.26132812 20.10695312 39.39765625 20.08890625 38.5078125 20.0703125 C37.68023437 20.04710937 36.85265625 20.02390625 36 20 C34.68 20 33.36 20 32 20 C31 19 30 18 29 17 C27.68 17 26.36 17 25 17 C25 15.68 25 14.36 25 13 C23.9275 13.04125 22.855 13.0825 21.75 13.125 C18 13 18 13 15.8125 11.875 C14.9153125 11.441875 14.9153125 11.441875 14 11 C11.93330603 11.90833725 11.93330603 11.90833725 10 13 C9.01 12.67 8.02 12.34 7 12 C7 11.01 7 10.02 7 9 C5.72239767 5.75685563 5.03061766 5.02041177 2 3 C1.01 3.495 1.01 3.495 0 4 C-0.33 3.01 -0.66 2.02 -1 1 C-0.67 0.67 -0.34 0.34 0 0 Z " fill="#DF1562" transform="translate(254,219)"/>
<path d="M0 0 C2.1875 -0.3125 2.1875 -0.3125 5 0 C7.8125 2.375 7.8125 2.375 10 5 C10 5.66 10 6.32 10 7 C10.66 7 11.32 7 12 7 C12 7.66 12 8.32 12 9 C13.11375 8.87625 13.11375 8.87625 14.25 8.75 C18.79157557 9.16287051 20.51241584 12.43542887 23.375 15.75 C25.81922462 18.33895384 25.81922462 18.33895384 29.125 18 C30.07375 18 31.0225 18 32 18 C32.433125 18.7425 32.86625 19.485 33.3125 20.25 C35.83587813 24.36217177 39.6041838 25.35041698 44 27 C44.495 25.515 44.495 25.515 45 24 C45.99 24.99 46.98 25.98 48 27 C47 28 47 28 44.3125 28.1796875 C26.94127611 27.23738054 11.50125817 11.60534195 0 0 Z " fill="#690368" transform="translate(204,256)"/>
<path d="M0 0 C0.4125 0.45375 0.825 0.9075 1.25 1.375 C3.06408095 3.05950374 4.75285627 3.99265971 7 5 C6.79375 5.61875 6.5875 6.2375 6.375 6.875 C6.25125 7.57625 6.1275 8.2775 6 9 C7.81766936 11.07698405 7.81766936 11.07698405 10 11.8125 C12.72767201 13.43205526 13.07724705 15.01879816 14 18 C14.165 18.7425 14.33 19.485 14.5 20.25 C14.665 20.8275 14.83 21.405 15 22 C15.66 22.33 16.32 22.66 17 23 C17 24.32 17 25.64 17 27 C17.66 27 18.32 27 19 27 C19.66 26.34 20.32 25.68 21 25 C21.12375 25.969375 21.2475 26.93875 21.375 27.9375 C21.58125 28.948125 21.7875 29.95875 22 31 C22.66 31.33 23.32 31.66 24 32 C24.66 32.99 25.32 33.98 26 35 C20.21921179 34.37450459 18.13601237 31.41169557 14.484375 27.171875 C-0.47565998 8.56187964 -0.47565998 8.56187964 0 0 Z " fill="#C31C5B" transform="translate(182,221)"/>
<path d="M0 0 C0.33 0.66 0.66 1.32 1 2 C-0.08590531 4.55489388 -1.22947774 6.9757573 -2.5 9.4375 C-2.86657715 10.15381592 -3.2331543 10.87013184 -3.61083984 11.6081543 C-13.04518222 29.79481388 -13.04518222 29.79481388 -20 32 C-19.67 30.68 -19.34 29.36 -19 28 C-19.99 28 -20.98 28 -22 28 C-21 26 -21 26 -18 24 C-15.3125 23.875 -15.3125 23.875 -13 24 C-12.93941406 23.08476562 -12.87882812 22.16953125 -12.81640625 21.2265625 C-12.73261719 20.03804687 -12.64882813 18.84953125 -12.5625 17.625 C-12.48128906 16.44164062 -12.40007812 15.25828125 -12.31640625 14.0390625 C-12 11 -12 11 -11 9 C-9.576875 8.5978125 -9.576875 8.5978125 -8.125 8.1875 C-4.37125412 6.76107656 -3.75271487 5.50542974 -2 2 C-1.34 1.34 -0.68 0.68 0 0 Z M-11 13 C-10 15 -10 15 -10 15 Z " fill="#E01366" transform="translate(425,216)"/>
<path d="M0 0 C2.06688097 7.1330704 -0.72789522 14.18368566 -3 21 C-3.11553891 22.73277162 -3.17645135 24.46943121 -3.20532227 26.20581055 C-3.22526749 27.26668381 -3.24521271 28.32755707 -3.26576233 29.420578 C-3.28247482 30.56440445 -3.29918732 31.7082309 -3.31640625 32.88671875 C-3.33718735 34.05886429 -3.35796844 35.23100983 -3.37937927 36.43867493 C-3.44483818 40.18822286 -3.50374296 43.93784163 -3.5625 47.6875 C-3.60568868 50.22722091 -3.64930308 52.76693462 -3.69335938 55.30664062 C-3.80051586 61.53768522 -3.9022892 67.76880051 -4 74 C-4.99 73.67 -5.98 73.34 -7 73 C-6.93223682 66.43837219 -6.84214884 59.87730504 -6.73754883 53.31616211 C-6.70458177 51.09064427 -6.67646508 48.86504848 -6.65356445 46.6394043 C-6.48047532 30.25486061 -5.18783592 15.63709409 0 0 Z " fill="#D96F5C" transform="translate(18,81)"/>
<path d="M0 0 C0.33 0 0.66 0 1 0 C1.01981934 0.58378418 1.03963867 1.16756836 1.06005859 1.76904297 C1.15662861 4.47140268 1.26575973 7.17312394 1.375 9.875 C1.4059375 10.7928125 1.436875 11.710625 1.46875 12.65625 C1.70283204 18.19619156 2.33910644 23.40673869 3.58447266 28.81298828 C4 31 4 31 4 35 C5.65 35.66 7.3 36.32 9 37 C9 38.65 9 40.3 9 42 C9.55429687 42.13535156 10.10859375 42.27070313 10.6796875 42.41015625 C12.98100333 43.09399921 14.93031054 43.77508175 17 45 C18.5 48.6875 18.5 48.6875 19 52 C16.03243757 50.62220316 13.60199817 48.97121074 11 47 C9.7625 46.4121875 9.7625 46.4121875 8.5 45.8125 C3.28002264 42.02801642 1.68392153 35.8196169 0.39038086 29.73339844 C-0.40513184 24.16331706 -0.2025936 18.55109848 -0.125 12.9375 C-0.11597656 11.69033203 -0.10695313 10.44316406 -0.09765625 9.15820312 C-0.07426209 6.10526496 -0.04148174 3.05273694 0 0 Z " fill="#A00D66" transform="translate(11,236)"/>
<path d="M0 0 C0.99 0 1.98 0 3 0 C1.37113402 7.64314036 1.37113402 7.64314036 -0.625 9.5625 C-2.90228375 11.94329665 -2.05376772 14.82770432 -2 18 C-2.61998741 20.01495907 -3.27954236 22.0187415 -4 24 C-4 24.99 -4 25.98 -4 27 C-4.66 27.33 -5.32 27.66 -6 28 C-5.67 28.66 -5.34 29.32 -5 30 C-5.474375 30.53625 -5.94875 31.0725 -6.4375 31.625 C-8.28186076 34.42842836 -8.62456847 36.69620258 -9 40 C-9.33 40 -9.66 40 -10 40 C-10.19946435 33.71687298 -9.84752843 28.04155282 -8 22 C-7.67 21.67 -7.34 21.34 -7 21 C-6.43725235 18.31455654 -5.91938977 15.63746613 -5.4375 12.9375 C-5.29892578 12.17888672 -5.16035156 11.42027344 -5.01757812 10.63867188 C-4.67488173 8.75975025 -4.3369927 6.87995299 -4 5 C-2.68 5 -1.36 5 0 5 C0 3.35 0 1.7 0 0 Z " fill="#F17C3B" transform="translate(24,71)"/>
<path d="M0 0 C0.66 0.33 1.32 0.66 2 1 C0.71580959 2.67243402 -0.57757185 4.33781447 -1.875 6 C-2.59429687 6.928125 -3.31359375 7.85625 -4.0546875 8.8125 C-4.69664062 9.534375 -5.33859375 10.25625 -6 11 C-6.66 11 -7.32 11 -8 11 C-8.19851563 11.54011719 -8.39703125 12.08023437 -8.6015625 12.63671875 C-10.61694154 16.04259674 -13.3761558 18.27272997 -16.375 20.8125 C-16.9525 21.32748047 -17.53 21.84246094 -18.125 22.37304688 C-19.8359375 23.83203125 -19.8359375 23.83203125 -23 26 C-25.19775391 25.63549805 -25.19775391 25.63549805 -27 25 C-25.8125 22.5625 -25.8125 22.5625 -24 20 C-21.3125 19.1875 -21.3125 19.1875 -19 19 C-18.67 18.01 -18.34 17.02 -18 16 C-16.40625 14.7890625 -16.40625 14.7890625 -14.5 13.625 C-11.46442329 11.59550066 -11.46442329 11.59550066 -10.0625 8.1875 C-10.041875 7.465625 -10.02125 6.74375 -10 6 C-8.68 6 -7.36 6 -6 6 C-5.67 5.01 -5.34 4.02 -5 3 C-3 1.875 -3 1.875 -1 1 C-0.67 0.67 -0.34 0.34 0 0 Z " fill="#64075A" transform="translate(408,245)"/>
<path d="M0 0 C0.99 0 1.98 0 3 0 C3.33 2.64 3.66 5.28 4 8 C4.99 8.33 5.98 8.66 7 9 C7 9.66 7 10.32 7 11 C6.34 11 5.68 11 5 11 C5 12.32 5 13.64 5 15 C5.66 15.66 6.32 16.32 7 17 C6.69595322 18.67225729 6.35371498 20.33753959 6 22 C5.90430233 25.00188475 5.94112753 27.99750402 6 31 C5.67 30.34 5.34 29.68 5 29 C4.34 29 3.68 29 3 29 C0.82188403 19.39937232 0.40962538 9.79867033 0 0 Z " fill="#E15A6F" transform="translate(166,163)"/>
<path d="M0 0 C3.63 0.66 7.26 1.32 11 2 C10.22031517 5.11873932 9.37471523 7.75696622 8.125 10.6875 C7.79757812 11.47511719 7.47015625 12.26273438 7.1328125 13.07421875 C6 15 6 15 3 16 C2.34 15.34 1.68 14.68 1 14 C1.375 11.375 1.375 11.375 2 9 C1.01 9.495 1.01 9.495 0 10 C-0.20086443 6.28400809 -0.1519437 5.22791555 2 2 C1.34 1.34 0.68 0.68 0 0 Z " fill="#EF2465" transform="translate(421,201)"/>
<path d="M0 0 C-2.6855594 2.6855594 -5.37621328 3.06049974 -9 4 C-9 5.98 -9 7.96 -9 10 C-11.31 10 -13.62 10 -16 10 C-16.15855469 10.56589844 -16.31710938 11.13179687 -16.48046875 11.71484375 C-17.18581705 13.93220942 -17.89153152 15.95193129 -19 18 C-21.6875 19 -21.6875 19 -24 19 C-24.33 17.68 -24.66 16.36 -25 15 C-23.68 14.67 -22.36 14.34 -21 14 C-20.9175 13.401875 -20.835 12.80375 -20.75 12.1875 C-19.77705573 9.34974589 -18.55550687 8.50323933 -16 7 C-15.01 7 -14.02 7 -13 7 C-12.71125 6.401875 -12.4225 5.80375 -12.125 5.1875 C-9.58072591 0.24030038 -9.58072591 0.24030038 -7.1875 -0.75 C-4.59271 -1.04654743 -2.52136205 -0.63034051 0 0 Z " fill="#F3812A" transform="translate(70,28)"/>
<path d="M0 0 C7.02964823 1.43417862 13.64451216 2.93720564 20.09765625 6.1328125 C22.04618085 7.02105164 23.91189703 7.54424479 26 8 C26 8.66 26 9.32 26 10 C26.70125 9.814375 27.4025 9.62875 28.125 9.4375 C31.33888698 8.94843024 33.83560336 9.33768442 37 10 C37 10.66 37 11.32 37 12 C28.8291012 12.5411126 22.65327392 11.31151483 15.125 8.1875 C14.21492187 7.83107422 13.30484375 7.47464844 12.3671875 7.10742188 C8.04297473 5.38469091 3.83966498 3.67491305 0 1 C0 0.67 0 0.34 0 0 Z " fill="#430747" transform="translate(238,281)"/>
<path d="M0 0 C0.33 0 0.66 0 1 0 C0.65276437 5.49590192 0.14243525 9.34919582 -3 14 C-3.28875 14.99 -3.5775 15.98 -3.875 17 C-5.22876709 20.61004557 -7.15424903 22.45380176 -10 25 C-10.66 24.67 -11.32 24.34 -12 24 C-12 23.01 -12 22.02 -12 21 C-10.35 20.34 -8.7 19.68 -7 19 C-7.33 18.01 -7.66 17.02 -8 16 C-7.0625 13.8125 -7.0625 13.8125 -6 12 C-6.66 12 -7.32 12 -8 12 C-8 11.01 -8 10.02 -8 9 C-7.01 9.33 -6.02 9.66 -5 10 C-4.67 8.35 -4.34 6.7 -4 5 C-3.01 4.67 -2.02 4.34 -1 4 C-0.26676204 1.98491642 -0.26676204 1.98491642 0 0 Z " fill="#AE0A69" transform="translate(73,259)"/>
<path d="M0 0 C2.1875 -0.3125 2.1875 -0.3125 5 0 C7.8125 2.375 7.8125 2.375 10 5 C10 5.66 10 6.32 10 7 C10.66 7 11.32 7 12 7 C12 7.66 12 8.32 12 9 C13.11375 8.87625 13.11375 8.87625 14.25 8.75 C17 9 17 9 19.3125 10.875 C21 13 21 13 21 15 C18.38732523 15.45501639 16.64704479 15.44007827 14.41699219 13.92333984 C12.67790099 12.39659757 11.01977667 10.81537828 9.375 9.1875 C8.80265625 8.64029297 8.2303125 8.09308594 7.640625 7.52929688 C5.0596749 5.05338544 2.52633125 2.53149086 0 0 Z " fill="#91105F" transform="translate(204,256)"/>
<path d="M0 0 C-0.66 2.31 -1.32 4.62 -2 7 C-3.2375 6.79375 -4.475 6.5875 -5.75 6.375 C-9.25712901 5.9180853 -10.90551803 6.23172459 -14 8 C-16.109375 7.5625 -16.109375 7.5625 -18 7 C-16.37554381 6.01993141 -14.75041739 5.04097364 -13.125 4.0625 C-12.22007812 3.51722656 -11.31515625 2.97195312 -10.3828125 2.41015625 C-6.58909566 0.16502219 -4.43022254 -0.09630919 0 0 Z " fill="#EA3867" transform="translate(383,193)"/>
<path d="M0 0 C4.40521974 2.96505175 7.98339209 5.5354203 11 10 C11 10.66 11 11.32 11 12 C11.66 12.33 12.32 12.66 13 13 C11.02 13.66 9.04 14.32 7 15 C6.67 14.34 6.34 13.68 6 13 C6.66 13 7.32 13 8 13 C7.67 11.35 7.34 9.7 7 8 C4.36 8 1.72 8 -1 8 C-1.33 7.01 -1.66 6.02 -2 5 C-1.67 4.34 -1.34 3.68 -1 3 C-1.66 2.67 -2.32 2.34 -3 2 C-2.01 1.34 -1.02 0.68 0 0 Z " fill="#F6802F" transform="translate(191,39)"/>
<path d="M0 0 C0.33 0 0.66 0 1 0 C1.03758423 1.27846802 1.03758423 1.27846802 1.07592773 2.58276367 C1.17135569 5.76044966 1.27057124 8.93798894 1.37231445 12.11547852 C1.4154884 13.48782776 1.45717501 14.86022467 1.49731445 16.23266602 C1.55544392 18.21122068 1.6194571 20.1895997 1.68359375 22.16796875 C1.72025146 23.35672607 1.75690918 24.5454834 1.79467773 25.77026367 C1.97575301 28.6185929 2.41602798 31.21527394 3 34 C2.91878575 35.94128253 2.77195686 37.88084231 2.5625 39.8125 C2.46066406 40.78832031 2.35882813 41.76414063 2.25390625 42.76953125 C2.12822266 43.87361328 2.12822266 43.87361328 2 45 C1.01 44.67 0.02 44.34 -1 44 C-0.67 29.48 -0.34 14.96 0 0 Z " fill="#D46D68" transform="translate(167,115)"/>
<path d="M0 0 C9.53693106 4.26827684 20.9596057 14.17579211 25.24609375 23.796875 C25.49488281 24.52390625 25.74367187 25.2509375 26 26 C25.01 26 24.02 26 23 26 C23 25.01 23 24.02 23 23 C21.68 23.33 20.36 23.66 19 24 C18.87625 22.6696875 18.87625 22.6696875 18.75 21.3125 C17.38835922 15.29858655 13.14387052 12.11935449 8.4375 8.4375 C5.12065296 5.8407283 2.360481 3.50495664 0 0 Z " fill="#D67D44" transform="translate(183,31)"/>
<path d="M0 0 C0 3.20395416 -0.74335022 5.09399739 -2 8 C-2.66 8 -3.32 8 -4 8 C-4.66 11.3 -5.32 14.6 -6 18 C-7.65 18.33 -9.3 18.66 -11 19 C-11 20.65 -11 22.3 -11 24 C-11.99 23.67 -12.98 23.34 -14 23 C-10.07869089 14.62103252 -6.12561798 7.03794406 0 0 Z " fill="#DE7E44" transform="translate(35,52)"/>
<path d="M0 0 C1.32 0 2.64 0 4 0 C4 11.55 4 23.1 4 35 C1.89455186 30.78910372 1.72755999 27.91929046 1.8125 23.375 C1.81894531 22.66730469 1.82539062 21.95960938 1.83203125 21.23046875 C1.91138394 15.78489042 2.27307073 10.400046 3 5 C2.34 5 1.68 5 1 5 C0.34 3.68 -0.32 2.36 -1 1 C-0.67 0.67 -0.34 0.34 0 0 Z " fill="#DC1A5F" transform="translate(70,224)"/>
<path d="M0 0 C-3.90329402 3.20878901 -7.12045189 3.94276458 -12 5 C-12.33 3.35 -12.66 1.7 -13 0 C-15.64 0 -18.28 0 -21 0 C-21 -0.66 -21 -1.32 -21 -2 C-13.30233993 -3.38591277 -7.38206487 -2.48407886 0 0 Z " fill="#E73C69" transform="translate(410,194)"/>
<path d="M0 0 C-0.5 2.875 -0.5 2.875 -2 6 C-5.18549997 7.45777117 -8.50979631 8 -12 8 C-14.33491639 8.32205743 -16.66842508 8.65458149 -19 9 C-15.70409309 6.29670689 -12.24386481 4.58099915 -8.375 2.8125 C-7.22773438 2.28269531 -6.08046875 1.75289062 -4.8984375 1.20703125 C-2 0 -2 0 0 0 Z " fill="#E07C34" transform="translate(261,17)"/>
<path d="M0 0 C3.4375 0.8125 3.4375 0.8125 7 2 C7.33 2.99 7.66 3.98 8 5 C9.76481626 5.74085455 9.76481626 5.74085455 11.9375 6.0625 C13.14212891 6.29646484 13.14212891 6.29646484 14.37109375 6.53515625 C15.23863281 6.68855469 16.10617188 6.84195312 17 7 C18.83451542 7.32676502 20.66790217 7.65994155 22.5 8 C23.75296875 8.2165625 23.75296875 8.2165625 25.03125 8.4375 C26.00578125 8.7159375 26.00578125 8.7159375 27 9 C27.33 9.66 27.66 10.32 28 11 C18.8138041 11.61241306 9.95834403 9.86809266 2.75 3.8125 C0 1 0 1 0 0 Z " fill="#630B58" transform="translate(20,282)"/>
<path d="M0 0 C-2.1778995 1.4952292 -4.36558945 2.97066712 -6.5625 4.4375 C-7.17158203 4.85837891 -7.78066406 5.27925781 -8.40820312 5.71289062 C-12.61502108 8.49517763 -15.87921694 9.55058641 -21 10 C-21.99 10.495 -21.99 10.495 -23 11 C-22.67 10.01 -22.34 9.02 -22 8 C-18.535 7.505 -18.535 7.505 -15 7 C-15 6.34 -15 5.68 -15 5 C-14.21625 4.690625 -13.4325 4.38125 -12.625 4.0625 C-10.07669872 3.07124962 -10.07669872 3.07124962 -8 2 C-8 1.34 -8 0.68 -8 0 C-4.71303767 -0.79953138 -3.28976808 -1.09658936 0 0 Z " fill="#4F0854" transform="translate(383,272)"/>
<path d="M0 0 C3.12275771 2.53290348 3.67563205 4.88332176 4.5 8.75 C6.318647 17.07912379 6.318647 17.07912379 11 24 C11.56520003 26.65537372 11.73788198 29.29144713 12 32 C5.41206765 24.03958175 0 10.36709177 0 0 Z " fill="#C73660" transform="translate(170,192)"/>
<path d="M0 0 C0.99 0.33 1.98 0.66 3 1 C3 1.66 3 2.32 3 3 C3.66 3 4.32 3 5 3 C5 3.99 5 4.98 5 6 C5.66 6.33 6.32 6.66 7 7 C5.68 7.33 4.36 7.66 3 8 C3.165 8.928125 3.33 9.85625 3.5 10.8125 C4.20713865 15.8137125 4.49222114 20.9693331 4 26 C3.34 26.66 2.68 27.32 2 28 C1.67 21.07 1.34 14.14 1 7 C0.67 7 0.34 7 0 7 C0 4.69 0 2.38 0 0 Z " fill="#F07557" transform="translate(166,109)"/>
<path d="M0 0 C6.27588901 1.65154974 11.46947898 4.2452407 17 7.5625 C17.6710376 7.96267334 18.3420752 8.36284668 19.03344727 8.77514648 C23.86827371 11.73654743 23.86827371 11.73654743 25 14 C22.06461428 13.5484022 20.57603996 12.71134636 18.0625 11 C15.17654174 9.11529257 13.36815915 8.39625402 10 8 C9.67 7.01 9.34 6.02 9 5 C7.35 5.33 5.7 5.66 4 6 C2.68 4.02 1.36 2.04 0 0 Z " fill="#DE8342" transform="translate(355,22)"/>
<path d="M0 0 C5.13517797 7.70276695 4.22757021 17.11211907 4 26 C3.67 26 3.34 26 3 26 C2.67 22.7 2.34 19.4 2 16 C1.01 16 0.02 16 -1 16 C-0.34 13.36 0.32 10.72 1 8 C0.34 8 -0.32 8 -1 8 C-0.67 5.36 -0.34 2.72 0 0 Z " fill="#CF7354" transform="translate(224,86)"/>
<path d="M0 0 C3.79462588 3.44965989 5.17654444 6.66750367 5.625 11.75 C5.69976562 12.54921875 5.77453125 13.3484375 5.8515625 14.171875 C5.92503906 15.07679687 5.92503906 15.07679687 6 16 C6.66 16 7.32 16 8 16 C8 17.32 8 18.64 8 20 C4.125 19.125 4.125 19.125 3 18 C2.75507797 15.25596619 2.61614703 12.5130033 2.4765625 9.76171875 C1.94587548 6.68634396 0.85578022 5.43117576 -1 3 C-0.67 2.01 -0.34 1.02 0 0 Z " fill="#F57551" transform="translate(418,76)"/>
<path d="M0 0 C2.48351743 2.48351743 2.98041975 4.66937119 4 8 C4.33 8.99 4.66 9.98 5 11 C5.35236497 12.99673484 5.68834559 14.99650739 6 17 C7.65 17 9.3 17 11 17 C9.35 18.32 7.7 19.64 6 21 C3.5163791 18.81853312 2.53345522 17.2360374 1.796875 14.0234375 C1.6215625 13.270625 1.44625 12.5178125 1.265625 11.7421875 C1.09546875 10.96101563 0.9253125 10.17984375 0.75 9.375 C0.564375 8.58609375 0.37875 7.7971875 0.1875 6.984375 C-0.2623239 5.00106053 -0.63768629 3.00115132 -1 1 C-0.67 0.67 -0.34 0.34 0 0 Z " fill="#8B5237" transform="translate(244,73)"/>
<path d="M0 0 C0.66 0 1.32 0 2 0 C2.66 0.99 3.32 1.98 4 3 C4.66 2.67 5.32 2.34 6 2 C6.66 2.33 7.32 2.66 8 3 C7.814375 4.051875 7.62875 5.10375 7.4375 6.1875 C7.04920669 9.57119882 7.11752515 11.76425888 8 15 C6.140625 14.4140625 6.140625 14.4140625 4 13 C2.734375 9.9609375 2.734375 9.9609375 1.75 6.375 C1.41484375 5.18648437 1.0796875 3.99796875 0.734375 2.7734375 C0.49203125 1.85820312 0.2496875 0.94296875 0 0 Z " fill="#EA3A67" transform="translate(173,200)"/>
<path d="M0 0 C6.00051731 0.3158167 11.26613931 1.55429563 16.9375 3.4375 C17.93148804 3.7636731 17.93148804 3.7636731 18.94555664 4.09643555 C21.84646601 5.09132147 23.80374692 5.80374692 26 8 C23.69 7.67 21.38 7.34 19 7 C18.67 7.66 18.34 8.32 18 9 C17.34 9 16.68 9 16 9 C16 8.34 16 7.68 16 7 C15.34 7 14.68 7 14 7 C14 6.34 14 5.68 14 5 C13.360625 4.896875 12.72125 4.79375 12.0625 4.6875 C7.93522674 3.76096927 3.99357051 2.38339371 0 1 C0 0.67 0 0.34 0 0 Z " fill="#DB823E" transform="translate(329,14)"/>
<path d="M0 0 C2.33944736 0.28730055 4.6739143 0.61936779 7 1 C7 2.98 7 4.96 7 7 C6.01 7 5.02 7 4 7 C3.01 7.33 2.02 7.66 1 8 C0.01 7.34 -0.98 6.68 -2 6 C-1.125 1.125 -1.125 1.125 0 0 Z " fill="#F57E24" transform="translate(262,16)"/>
<path d="M0 0 C-1.83879869 5.0920579 -3.34972642 8.09396745 -8.1875 10.75 C-9.5796875 11.36875 -9.5796875 11.36875 -11 12 C-10.67 10.68 -10.34 9.36 -10 8 C-10.99 8 -11.98 8 -13 8 C-12 6 -12 6 -9 4 C-6.3125 3.875 -6.3125 3.875 -4 4 C-4 3.01 -4 2.02 -4 1 C-2 0 -2 0 0 0 Z " fill="#9E175F" transform="translate(416,236)"/>
<path d="M0 0 C0.66 0.33 1.32 0.66 2 1 C1.54109375 1.38671875 1.0821875 1.7734375 0.609375 2.171875 C-3.40850204 5.58187715 -3.40850204 5.58187715 -7.125 9.3125 C-9.41292253 11.37163028 -10.99593669 11.5493905 -14 12 C-16.23408113 12.99083967 -16.23408113 12.99083967 -18 14 C-15.11133189 10.00030569 -12.12653535 7.65932278 -8 5 C-7.67 4.34 -7.34 3.68 -7 3 C-3.5625 1.3125 -3.5625 1.3125 0 0 Z " fill="#E46E3A" transform="translate(72,89)"/>
<path d="M0 0 C1 2 1 2 0.21484375 4.53125 C-3.26864011 12.62742043 -3.26864011 12.62742043 -7.3125 14.6875 C-8.199375 14.790625 -9.08625 14.89375 -10 15 C-9.625 13.0625 -9.625 13.0625 -9 11 C-8.34 10.67 -7.68 10.34 -7 10 C-5.94647157 7.69034152 -4.94280904 5.3570226 -4 3 C-3.01 3 -2.02 3 -1 3 C-0.67 2.01 -0.34 1.02 0 0 Z " fill="#F77F2D" transform="translate(40,49)"/>
<path d="M0 0 C3.39192363 0.59283621 5.2107757 1.76743189 7.75 4.0625 C8.67039063 4.88427734 8.67039063 4.88427734 9.609375 5.72265625 C10.29773438 6.35494141 10.29773438 6.35494141 11 7 C7.3558226 9.4294516 5.28758728 9.16179575 1 9 C1.020625 7.88625 1.04125 6.7725 1.0625 5.625 C1.26380718 2.16784079 1.26380718 2.16784079 0 0 Z " fill="#F6822A" transform="translate(180,31)"/>
<path d="M0 0 C0.66 0.33 1.32 0.66 2 1 C2 2.65 2 4.3 2 6 C2.66 6 3.32 6 4 6 C4.12375 7.134375 4.2475 8.26875 4.375 9.4375 C4.684375 11.2009375 4.684375 11.2009375 5 13 C5.66 13.33 6.32 13.66 7 14 C7 14.66 7 15.32 7 16 C6.01 16.33 5.02 16.66 4 17 C2.68 15.35 1.36 13.7 0 12 C0.66 12 1.32 12 2 12 C1.67 9.69 1.34 7.38 1 5 C0.34 5 -0.32 5 -1 5 C-0.67 3.35 -0.34 1.7 0 0 Z " fill="#F14B6B" transform="translate(230,183)"/>
<path d="M0 0 C0.66 0.33 1.32 0.66 2 1 C0.71580959 2.67243402 -0.57757185 4.33781447 -1.875 6 C-2.59429687 6.928125 -3.31359375 7.85625 -4.0546875 8.8125 C-4.69664062 9.534375 -5.33859375 10.25625 -6 11 C-6.66 11 -7.32 11 -8 11 C-8 11.66 -8 12.32 -8 13 C-8.99 12.67 -9.98 12.34 -11 12 C-10.67 10.02 -10.34 8.04 -10 6 C-8.68 6 -7.36 6 -6 6 C-5.67 5.01 -5.34 4.02 -5 3 C-3 1.875 -3 1.875 -1 1 C-0.67 0.67 -0.34 0.34 0 0 Z " fill="#830B59" transform="translate(408,245)"/>
<path d="M0 0 C2.31 0.66 4.62 1.32 7 2 C7.33 1.67 7.66 1.34 8 1 C9.99958364 0.95919217 12.00045254 0.95745644 14 1 C10.0949151 4.55007718 7.02265357 5.81819916 2 7 C0.5393715 4.35261084 0 3.10551666 0 0 Z " fill="#A34E2E" transform="translate(248,84)"/>
<path d="M0 0 C0.7425 0.53625 1.485 1.0725 2.25 1.625 C3.1575 2.07875 4.065 2.5325 5 3 C7.30287793 2.30859649 7.30287793 2.30859649 9 1 C10.6875 6.0625 10.6875 6.0625 11 8 C10.34 8.66 9.68 9.32 9 10 C8.67 8.68 8.34 7.36 8 6 C6.01432292 5.8046875 4.02864583 5.609375 2.04296875 5.4140625 C0 5 0 5 -3 3 C-2.01 2.01 -1.02 1.02 0 0 Z " fill="#F67C39" transform="translate(138,71)"/>
<path d="M0 0 C1.65 0.99 3.3 1.98 5 3 C4.8864371 4.64666203 4.75882619 6.29236082 4.625 7.9375 C4.55539063 8.85402344 4.48578125 9.77054688 4.4140625 10.71484375 C4.27742188 11.46894531 4.14078125 12.22304687 4 13 C3.01 13.495 3.01 13.495 2 14 C2 13.34 2 12.68 2 12 C1.34 12 0.68 12 0 12 C0 8.04 0 4.08 0 0 Z " fill="#E26B43" transform="translate(69,104)"/>
<path d="M0 0 C2.25525345 1.07335592 4.50375548 2.15807558 6.75 3.25 C7.38421875 3.55035156 8.0184375 3.85070312 8.671875 4.16015625 C12.41687422 5.99364545 15.24803883 7.85887261 18 11 C14.14521782 11.35858439 12.42240542 11.2754818 9.125 9.125 C8.42375 8.42375 7.7225 7.7225 7 7 C7 6.34 7 5.68 7 5 C4.03 4.505 4.03 4.505 1 4 C0.67 2.68 0.34 1.36 0 0 Z " fill="#DF823C" transform="translate(165,20)"/>
<path d="M0 0 C1.92847677 5.35687991 0.14312249 10.5906332 -1.45703125 15.82421875 C-2.69850706 20.79905346 -3.28301712 25.92772749 -4 31 C-4.33 31 -4.66 31 -5 31 C-5.74450039 20.080661 -3.43208568 10.29625704 0 0 Z " fill="#D1754F" transform="translate(18,81)"/>
<path d="M0 0 C5.13373162 1.39038565 10.03739743 3.08460953 15 5 C12 7 12 7 8 7 C7.67 6.34 7.34 5.68 7 5 C6.1028125 5.309375 6.1028125 5.309375 5.1875 5.625 C3 6 3 6 0 4 C0 2.68 0 1.36 0 0 Z " fill="#F68429" transform="translate(151,17)"/>
<path d="M0 0 C2 1 2 1 3 3 C3.99 3.33 4.98 3.66 6 4 C3.77068472 6.56371257 2.29892922 7.34021416 -1 8 C-3.00382009 8.65509503 -5.00458132 9.31974363 -7 10 C-7.33 9.34 -7.66 8.68 -8 8 C-6.7934375 7.6596875 -6.7934375 7.6596875 -5.5625 7.3125 C-4.716875 6.879375 -3.87125 6.44625 -3 6 C-2.26259783 3.48051222 -2.26259783 3.48051222 -2 1 C-1.34 0.67 -0.68 0.34 0 0 Z " fill="#F47739" transform="translate(96,72)"/>
<path d="M0 0 C0.33 0.66 0.66 1.32 1 2 C-0.19427286 4.73650671 -1.44471772 7.35238083 -2.8125 10 C-3.18181641 10.73734375 -3.55113281 11.4746875 -3.93164062 12.234375 C-6.71898191 17.71898191 -6.71898191 17.71898191 -9 20 C-8.29597002 13.31171515 -6.15572959 6.51501786 -1.75 1.375 C-1.1725 0.92125 -0.595 0.4675 0 0 Z " fill="#C01B59" transform="translate(425,216)"/>
<path d="M0 0 C0.33 0 0.66 0 1 0 C1.02505615 0.62044189 1.0501123 1.24088379 1.07592773 1.88012695 C1.19196721 4.69112397 1.31465759 7.50179241 1.4375 10.3125 C1.47681641 11.28896484 1.51613281 12.26542969 1.55664062 13.27148438 C1.59853516 14.20927734 1.64042969 15.14707031 1.68359375 16.11328125 C1.72025146 16.97735596 1.75690918 17.84143066 1.79467773 18.73168945 C1.92747354 21.1647826 1.92747354 21.1647826 3 24 C3.03954234 26.33299825 3.04401732 28.66708189 3 31 C-0.13217778 27.60409791 -0.35738037 25.25487922 -0.29296875 20.703125 C-0.28330078 19.49785156 -0.27363281 18.29257813 -0.26367188 17.05078125 C-0.23853516 15.79652344 -0.21339844 14.54226562 -0.1875 13.25 C-0.17396484 11.98027344 -0.16042969 10.71054688 -0.14648438 9.40234375 C-0.1111324 6.26780156 -0.06178248 3.13411455 0 0 Z " fill="#B61A5C" transform="translate(11,236)"/>
<path d="M0 0 C2.57672427 3.14511933 4.17392493 6.32163947 5.75 10.0625 C6.19859375 11.10535156 6.6471875 12.14820312 7.109375 13.22265625 C8 16 8 16 7 19 C5.35 19.33 3.7 19.66 2 20 C2.33 19.34 2.66 18.68 3 18 C3.66 18 4.32 18 5 18 C5 16.02 5 14.04 5 12 C4.34 12 3.68 12 3 12 C3 10.35 3 8.7 3 7 C2.34 7 1.68 7 1 7 C0.67 4.69 0.34 2.38 0 0 Z " fill="#D17464" transform="translate(423,85)"/>
<path d="M0 0 C0.66 0.33 1.32 0.66 2 1 C-0.9165795 5.15051697 -3.52525767 6.76262883 -8 9 C-8.69937532 10.31647119 -9.36729133 11.65022151 -10 13 C-12.93973224 15.11057699 -14.34648137 16 -18 16 C-12.33998772 10.13121677 -6.73304432 4.62661705 0 0 Z " fill="#D67F45" transform="translate(59,29)"/>
<path d="M0 0 C2.35720585 3.53580877 4.21619249 7.2093646 6.125 11 C6.49753906 11.72445312 6.87007812 12.44890625 7.25390625 13.1953125 C7.60582031 13.89398438 7.95773438 14.59265625 8.3203125 15.3125 C8.64273926 15.94800781 8.96516602 16.58351562 9.29736328 17.23828125 C10 19 10 19 10 22 C9.34 20.68 8.68 19.36 8 18 C7.34 18 6.68 18 6 18 C1.42857143 10.71428571 1.42857143 10.71428571 2 6 C1.34 6 0.68 6 0 6 C0 4.02 0 2.04 0 0 Z " fill="#C94A64" transform="translate(232,183)"/>
<path d="M0 0 C0.4125 0.45375 0.825 0.9075 1.25 1.375 C3.06408095 3.05950374 4.75285627 3.99265971 7 5 C6.67 6.98 6.34 8.96 6 11 C5.01 11 4.02 11 3 11 C0.84694043 7.14243493 -0.39253254 4.44870215 0 0 Z " fill="#DF225D" transform="translate(182,221)"/>
<path d="M0 0 C0.66 0.99 1.32 1.98 2 3 C1.35546875 5.70703125 1.35546875 5.70703125 0.1875 8.8125 C-1.3268052 12.89027066 -2.40029487 16.68599211 -3 21 C-3.33 21 -3.66 21 -4 21 C-4 16.05 -4 11.1 -4 6 C-3.34 5.67 -2.68 5.34 -2 5 C-1.27840576 3.35636866 -0.60648579 1.68949614 0 0 Z " fill="#CA6D59" transform="translate(77,98)"/>
<path d="M0 0 C0 1.32 0 2.64 0 4 C0.33 4.99 0.66 5.98 1 7 C-2.99455527 6.38545304 -5.74466336 4.29353263 -9 2 C-5.86501708 0.14223235 -3.62528568 -0.20140476 0 0 Z " fill="#E97340" transform="translate(155,80)"/>
<path d="M0 0 C0.68449219 0.27585938 1.36898438 0.55171875 2.07421875 0.8359375 C5.31107709 2.12376632 8.56021876 3.37664963 11.8125 4.625 C12.97394531 5.07101563 14.13539063 5.51703125 15.33203125 5.9765625 C16.21246094 6.31429687 17.09289062 6.65203125 18 7 C14.80588526 8.02328619 12.5784116 7.96256253 9.3125 7.25 C8.13107422 7.01023438 8.13107422 7.01023438 6.92578125 6.765625 C6.29027344 6.51296875 5.65476562 6.2603125 5 6 C4.67 5.01 4.34 4.02 4 3 C1.98491642 2.26676204 1.98491642 2.26676204 0 2 C0 1.34 0 0.68 0 0 Z " fill="#C2235B" transform="translate(265,225)"/>
<path d="M0 0 C-1.77029446 1.29240512 -3.54125498 2.58389793 -5.3125 3.875 C-6.29863281 4.59429687 -7.28476563 5.31359375 -8.30078125 6.0546875 C-10.17523115 7.4055935 -12.07752993 8.71835329 -14 10 C-13.67 8.35 -13.34 6.7 -13 5 C-12.01 5 -11.02 5 -10 5 C-9.67 4.01 -9.34 3.02 -9 2 C-3.69230769 -1.23076923 -3.69230769 -1.23076923 0 0 Z " fill="#C46C42" transform="translate(99,79)"/>
<path d="M0 0 C4.5076467 0.53031138 7.41954788 2.25221116 11 5 C11 5.66 11 6.32 11 7 C11.639375 7.12375 12.27875 7.2475 12.9375 7.375 C13.618125 7.58125 14.29875 7.7875 15 8 C15.33 8.66 15.66 9.32 16 10 C9.8034553 8.53239731 4.93130534 4.88851943 0 1 C0 0.67 0 0.34 0 0 Z " fill="#5B0C51" transform="translate(222,271)"/>
<path d="M0 0 C2 2 2 2 2 6 C2.66 6.33 3.32 6.66 4 7 C4.99 8.485 4.99 8.485 6 10 C3.29068581 9.84518205 1.53415961 9.51827919 -0.4453125 7.59765625 C-1.67679642 6.10228292 -2.8429837 4.5537076 -4 3 C-3.01 2.67 -2.02 2.34 -1 2 C-0.67 1.34 -0.34 0.68 0 0 Z " fill="#B71160" transform="translate(202,246)"/>
<path d="M0 0 C3 1 3 1 4.0625 2.99609375 C4.371875 3.80175781 4.68125 4.60742188 5 5.4375 C6.36287699 8.97530152 6.71086329 9.80724219 10 12 C10 12.66 10 13.32 10 14 C9.34 14 8.68 14 8 14 C7.67 14.66 7.34 15.32 7 16 C5.83102715 13.52189684 4.66472456 11.04259881 3.5 8.5625 C3.16613281 7.85544922 2.83226562 7.14839844 2.48828125 6.41992188 C0 1.11328125 0 1.11328125 0 0 Z " fill="#9A5230" transform="translate(235,57)"/>
<path d="M0 0 C0.99 0.33 1.98 0.66 3 1 C3 1.66 3 2.32 3 3 C4.051875 2.7215625 4.051875 2.7215625 5.125 2.4375 C8.33888698 1.94843024 10.83560336 2.33768442 14 3 C14 3.66 14 4.32 14 5 C12.22992286 5.08114106 10.45877902 5.13925505 8.6875 5.1875 C7.70136719 5.22230469 6.71523438 5.25710938 5.69921875 5.29296875 C3 5 3 5 1.14453125 3.61328125 C0 2 0 2 0 0 Z " fill="#4A0252" transform="translate(261,288)"/>
<path d="M0 0 C1.32 0.66 2.64 1.32 4 2 C3.34 2.66 2.68 3.32 2 4 C2.33 4.66 2.66 5.32 3 6 C2.2884375 6.804375 2.2884375 6.804375 1.5625 7.625 C-0.28186076 10.42842836 -0.62456847 12.69620258 -1 16 C-1.33 16 -1.66 16 -2 16 C-2.2358396 10.22192976 -1.86783046 5.48675196 0 0 Z " fill="#F67847" transform="translate(16,95)"/>
<path d="M0 0 C0.66 0.33 1.32 0.66 2 1 C2.3125 3.6875 2.3125 3.6875 2 7 C-0.3125 9.875 -0.3125 9.875 -3 12 C-3.99 12 -4.98 12 -6 12 C-6 11.01 -6 10.02 -6 9 C-4.35 8.34 -2.7 7.68 -1 7 C-1.33 6.01 -1.66 5.02 -2 4 C-1.0625 1.8125 -1.0625 1.8125 0 0 Z " fill="#90056E" transform="translate(67,271)"/>
<path d="M0 0 C2.64 0.33 5.28 0.66 8 1 C7.67 3.64 7.34 6.28 7 9 C4.03595495 6.19195732 1.55500981 3.81684226 0 0 Z " fill="#DE7A4F" transform="translate(154,87)"/>
<path d="M0 0 C0.66 -0.33 1.32 -0.66 2 -1 C2 0.32 2 1.64 2 3 C2.66 3.33 3.32 3.66 4 4 C3 5 3 5 0.6875 5.375 C-2 5 -2 5 -4.3125 2.5 C-4.869375 1.675 -5.42625 0.85 -6 0 C-3 -1 -3 -1 0 0 Z " fill="#E06D3D" transform="translate(335,74)"/>
<path d="M0 0 C2.79872437 2.52788007 4.45773019 4.20411134 5 8 C3.02 8 1.04 8 -1 8 C-1 5.16032769 -0.59732819 2.76264289 0 0 Z " fill="#F67E35" transform="translate(207,56)"/>
<path d="M0 0 C1.65 0 3.3 0 5 0 C5.99 2.64 6.98 5.28 8 8 C5.04987143 6.63029745 2.4347778 5.17390875 0 3 C0 2.01 0 1.02 0 0 Z " fill="#8B0371" transform="translate(22,280)"/>
<path d="M0 0 C0.33 0 0.66 0 1 0 C1.33 2.64 1.66 5.28 2 8 C2.99 8.33 3.98 8.66 5 9 C5 9.66 5 10.32 5 11 C4.34 11 3.68 11 3 11 C3 11.66 3 12.32 3 13 C2.01 13.33 1.02 13.66 0 14 C0 9.38 0 4.76 0 0 Z " fill="#F25C6A" transform="translate(168,163)"/>
<path d="M0 0 C4.51020195 0.38658874 7.38429295 2.39332748 11 5 C9.3125 5.6875 9.3125 5.6875 7 6 C5.31243867 5.03567924 3.64333504 4.03789581 2 3 C1.01 3.495 1.01 3.495 0 4 C-0.33 3.01 -0.66 2.02 -1 1 C-0.67 0.67 -0.34 0.34 0 0 Z " fill="#D6265E" transform="translate(254,219)"/>
<path d="M0 0 C0.66 1.32 1.32 2.64 2 4 C2.66 4 3.32 4 4 4 C4.33 5.98 4.66 7.96 5 10 C4.01 10 3.02 10 2 10 C1.01 7.03 0.02 4.06 -1 1 C-0.67 0.67 -0.34 0.34 0 0 Z " fill="#B05827" transform="translate(239,57)"/>
<path d="M0 0 C2.31 1.98 4.62 3.96 7 6 C5.68 7.32 4.36 8.64 3 10 C1.11608215 6.73454239 0.50712033 3.71888239 0 0 Z " fill="#E77D41" transform="translate(392,45)"/>
<path d="M0 0 C0.66 0.33 1.32 0.66 2 1 C-0.94491537 4.19032498 -2.76009006 6.09144787 -7 7 C-7.33 7.99 -7.66 8.98 -8 10 C-8.33 9.01 -8.66 8.02 -9 7 C-6.3765992 4.08511023 -3.28183606 2.11496102 0 0 Z " fill="#AA653D" transform="translate(232,31)"/>
<path d="M0 0 C0.66 0.33 1.32 0.66 2 1 C1.360625 1.53625 0.72125 2.0725 0.0625 2.625 C-2.38529404 5.44367193 -2.66714612 7.33860732 -3 11 C-3.28875 10.360625 -3.5775 9.72125 -3.875 9.0625 C-4.82823451 6.84793921 -4.82823451 6.84793921 -7 6 C-4.74259377 3.66475218 -2.7194239 1.81294927 0 0 Z " fill="#D67735" transform="translate(240,26)"/>
<path d="M0 0 C0.66 0 1.32 0 2 0 C4.32019297 3.19026533 6.34643078 6.41726669 8 10 C6.25 9.875 6.25 9.875 4 9 C0 3.88888889 0 3.88888889 0 0 Z " fill="#820F5E" transform="translate(14,272)"/>
<path d="M0 0 C0.33 1.98 0.66 3.96 1 6 C1.66 6 2.32 6 3 6 C3.33 6.99 3.66 7.98 4 9 C2.68 8.34 1.36 7.68 0 7 C0 6.34 0 5.68 0 5 C-0.99 5 -1.98 5 -3 5 C-3 4.34 -3 3.68 -3 3 C-3.99 2.67 -4.98 2.34 -6 2 C-2.25 0 -2.25 0 0 0 Z " fill="#E86E44" transform="translate(348,80)"/>
<path d="M0 0 C5.69139902 1.09698167 10.74567937 2.54053077 16 5 C11.99799622 6.60080151 8.95443764 5.29279692 5 4 C5 3.34 5 2.68 5 2 C3.35 1.67 1.7 1.34 0 1 C0 0.67 0 0.34 0 0 Z " fill="#C2395F" transform="translate(415,197)"/>
<path d="M0 0 C1.32 0.33 2.64 0.66 4 1 C3.34 2.32 2.68 3.64 2 5 C-4.75 4.25 -4.75 4.25 -7 2 C-4 2 -4 2 -1 3 C-0.67 2.01 -0.34 1.02 0 0 Z " fill="#E66D4F" transform="translate(374,103)"/>
<path d="M0 0 C0.66 0 1.32 0 2 0 C4.59227518 4.86051596 4.18689553 9.65271133 4 15 C3.67 15 3.34 15 3 15 C2.67 11.7 2.34 8.4 2 5 C1.01 5 0.02 5 -1 5 C-0.67 3.35 -0.34 1.7 0 0 Z " fill="#EB704D" transform="translate(224,97)"/>
<path d="M0 0 C1.32 0.33 2.64 0.66 4 1 C3.4375 2.875 3.4375 2.875 2 5 C-1.625 6.25 -1.625 6.25 -5 7 C-4.34 5.68 -3.68 4.36 -3 3 C-2.34 3 -1.68 3 -1 3 C-0.67 2.01 -0.34 1.02 0 0 Z " fill="#EC7A2A" transform="translate(242,26)"/>
<path d="M0 0 C1.76923828 0.01353516 1.76923828 0.01353516 3.57421875 0.02734375 C4.47785156 0.03894531 5.38148438 0.05054688 6.3125 0.0625 C6.3125 0.3925 6.3125 0.7225 6.3125 1.0625 C3.0125 1.0625 -0.2875 1.0625 -3.6875 1.0625 C-3.6875 1.7225 -3.6875 2.3825 -3.6875 3.0625 C-5.6675 3.0625 -7.6475 3.0625 -9.6875 3.0625 C-9.6875 2.4025 -9.6875 1.7425 -9.6875 1.0625 C-6.26517028 -0.07827657 -3.60076783 -0.03565117 0 0 Z " fill="#41034B" transform="translate(310.6875,294.9375)"/>
<path d="M0 0 C2.97 0 5.94 0 9 0 C9.33 0.99 9.66 1.98 10 3 C6.37 2.67 2.74 2.34 -1 2 C-0.67 1.34 -0.34 0.68 0 0 Z " fill="#6E0567" transform="translate(42,289)"/>
<path d="M0 0 C1 3 1 3 0.00390625 5.48046875 C-0.47175781 6.37378906 -0.94742187 7.26710937 -1.4375 8.1875 C-1.91058594 9.08855469 -2.38367188 9.98960937 -2.87109375 10.91796875 C-3.24363281 11.60503906 -3.61617188 12.29210937 -4 13 C-4.86443295 10.5653629 -5.12994709 9.36863937 -4.2578125 6.89453125 C-3.88398438 6.20746094 -3.51015625 5.52039063 -3.125 4.8125 C-2.57199219 3.77029297 -2.57199219 3.77029297 -2.0078125 2.70703125 C-1 1 -1 1 0 0 Z " fill="#BE2959" transform="translate(431,203)"/>
<path d="M0 0 C0.33 0 0.66 0 1 0 C1 3.96 1 7.92 1 12 C-1 8 -1 8 -1 6 C-1.66 6 -2.32 6 -3 6 C-3 4.68 -3 3.36 -3 2 C-2.01 2 -1.02 2 0 2 C0 1.34 0 0.68 0 0 Z " fill="#F67647" transform="translate(164,90)"/>
<path d="M0 0 C8.57142857 1 8.57142857 1 12 2 C12.33 3.32 12.66 4.64 13 6 C8.52761347 4.58192622 4.28853694 2.88695626 0 1 C0 0.67 0 0.34 0 0 Z " fill="#DA7F54" transform="translate(134,75)"/>
<path d="M0 0 C2.31 0.33 4.62 0.66 7 1 C7 1.99 7 2.98 7 4 C4.6875 4.625 4.6875 4.625 2 5 C1.01 4.34 0.02 3.68 -1 3 C-0.67 2.01 -0.34 1.02 0 0 Z " fill="#EB7826" transform="translate(262,16)"/>
<path d="M0 0 C0.33 0 0.66 0 1 0 C0.56407724 5.14388862 0.18386087 8.75485217 -3 13 C-3.33 13 -3.66 13 -4 13 C-4.37005772 8.68265992 -3.35225203 6.57542309 -1 3 C-0.67 2.01 -0.34 1.02 0 0 Z " fill="#830D56" transform="translate(73,265)"/>
<path d="M0 0 C1.65 0.33 3.3 0.66 5 1 C4.25 3.4375 4.25 3.4375 3 6 C0.875 6.8125 0.875 6.8125 -1 7 C-1.33 6.34 -1.66 5.68 -2 5 C-1.34 5 -0.68 5 0 5 C0 3.35 0 1.7 0 0 Z " fill="#DC0E61" transform="translate(323,232)"/>
<path d="M0 0 C2.86319855 1.04983947 3.8499428 1.73398952 5.375 4.4375 C5.684375 5.7059375 5.684375 5.7059375 6 7 C5.01 8.485 5.01 8.485 4 10 C3.67 9.01 3.34 8.02 3 7 C2.484375 6.525625 1.96875 6.05125 1.4375 5.5625 C0 4 0 4 0 0 Z " fill="#F11865" transform="translate(190,232)"/>
<path d="M0 0 C-1.69179328 2.04219706 -2.63727666 2.91793306 -5.26171875 3.51171875 C-6.06222656 3.56972656 -6.86273438 3.62773437 -7.6875 3.6875 C-8.49574219 3.75324219 -9.30398438 3.81898438 -10.13671875 3.88671875 C-11.05904297 3.94279297 -11.05904297 3.94279297 -12 4 C-9.94577945 1.94577945 -8.66990976 1.31862408 -6 0.3125 C-5.29875 0.04050781 -4.5975 -0.23148438 -3.875 -0.51171875 C-2 -1 -2 -1 0 0 Z " fill="#B81C57" transform="translate(336,229)"/>
<path d="M0 0 C1.65 0.33 3.3 0.66 5 1 C5.33 1.99 5.66 2.98 6 4 C1.25 5 1.25 5 -1 5 C-0.67 3.35 -0.34 1.7 0 0 Z " fill="#F57A40" transform="translate(214,75)"/>
<path d="M0 0 C-10.25 5.125 -10.25 5.125 -15 4 C-15 3.67 -15 3.34 -15 3 C-14.113125 2.71125 -13.22625 2.4225 -12.3125 2.125 C-9.07654738 1.0858973 -9.07654738 1.0858973 -6.375 -0.1875 C-3.68414048 -1.1080572 -2.65337193 -0.78929418 0 0 Z " fill="#EE822B" transform="translate(93,17)"/>
<path d="M0 0 C0.99 0.33 1.98 0.66 3 1 C2.6875 3.375 2.6875 3.375 2 6 C1.01 6.66 0.02 7.32 -1 8 C-0.67 6.68 -0.34 5.36 0 4 C-0.99 4 -1.98 4 -3 4 C-2 2 -2 2 0 0 Z " fill="#AF096B" transform="translate(406,240)"/>
<path d="M0 0 C2 1.8125 2 1.8125 4 4 C4 4.99 4 5.98 4 7 C2.35 6.67 0.7 6.34 -1 6 C-0.67 4.02 -0.34 2.04 0 0 Z " fill="#EF3868" transform="translate(239,201)"/>
<path d="M0 0 C2.97 0.99 5.94 1.98 9 3 C9 3.66 9 4.32 9 5 C6.75 5.3125 6.75 5.3125 4 5 C1.6875 2.5 1.6875 2.5 0 0 Z " fill="#750A5D" transform="translate(216,266)"/>
<path d="M0 0 C2 3 2 3 3 5 C0.69 5.33 -1.62 5.66 -4 6 C-4.33 5.34 -4.66 4.68 -5 4 C-3.35 2.68 -1.7 1.36 0 0 Z " fill="#ED1861" transform="translate(351,218)"/>
<path d="M0 0 C3.0916909 2.52956528 3.90931332 5.22454612 5 9 C4.34 9 3.68 9 3 9 C0.8125 6.1875 0.8125 6.1875 -1 3 C-0.67 2.01 -0.34 1.02 0 0 Z " fill="#D97357" transform="translate(418,76)"/>
<path d="M0 0 C3.39417765 3.12621626 5.6062718 5.56541027 7 10 C6.01 10 5.02 10 4 10 C3.32845067 8.71086513 2.66291141 7.41859796 2 6.125 C1.62875 5.40570313 1.2575 4.68640625 0.875 3.9453125 C0 2 0 2 0 0 Z " fill="#D97956" transform="translate(411,66)"/>
<path d="M0 0 C-3.44450737 2.29633824 -5.93812283 2.54016485 -10 3 C-10 2.34 -10 1.68 -10 1 C-6.78548731 -0.60725635 -3.56387464 -0.05748185 0 0 Z " fill="#34063F" transform="translate(346,290)"/>
<path d="M0 0 C-1 2 -1 2 -3.06640625 2.8515625 C-4.30197266 3.23441406 -4.30197266 3.23441406 -5.5625 3.625 C-6.80193359 4.01558594 -6.80193359 4.01558594 -8.06640625 4.4140625 C-8.70449219 4.60742188 -9.34257812 4.80078125 -10 5 C-10 4.34 -10 3.68 -10 3 C-6.58168085 0.4606772 -4.24223102 -0.3636198 0 0 Z " fill="#3B0841" transform="translate(367,281)"/>
<path d="M0 0 C1.98 0.495 1.98 0.495 4 1 C4 2.32 4 3.64 4 5 C3.34 5 2.68 5 2 5 C2 5.66 2 6.32 2 7 C1.01 6.67 0.02 6.34 -1 6 C-0.67 4.02 -0.34 2.04 0 0 Z " fill="#830668" transform="translate(398,251)"/>
<path d="M0 0 C1.32 0 2.64 0 4 0 C4 2.31 4 4.62 4 7 C3.67 6.34 3.34 5.68 3 5 C2.34 5 1.68 5 1 5 C0.34 3.68 -0.32 2.36 -1 1 C-0.67 0.67 -0.34 0.34 0 0 Z " fill="#E72F66" transform="translate(70,224)"/>
<path d="M0 0 C2.0343459 1.41519715 2.90410393 2.54982123 3.421875 4.98046875 C3.66273952 6.98176954 3.83532741 8.9909944 4 11 C3.34 11 2.68 11 2 11 C0.80712589 7.12315913 0 4.08378077 0 0 Z " fill="#CA4E69" transform="translate(170,192)"/>
<path d="M0 0 C0.66 0 1.32 0 2 0 C2 0.66 2 1.32 2 2 C2.763125 1.938125 3.52625 1.87625 4.3125 1.8125 C7 2 7 2 8.8125 3.5 C9.204375 3.995 9.59625 4.49 10 5 C6.14354879 5.22036864 3.50776784 4.60355101 0 3 C0 2.01 0 1.02 0 0 Z " fill="#8B0769" transform="translate(214,263)"/>
<path d="M0 0 C0 0.66 0 1.32 0 2 C-1.65 2.33 -3.3 2.66 -5 3 C-5.33 3.99 -5.66 4.98 -6 6 C-7.32 5.67 -8.64 5.34 -10 5 C-8.71186658 4.16121545 -7.41936744 3.32913217 -6.125 2.5 C-5.40570313 2.0359375 -4.68640625 1.571875 -3.9453125 1.09375 C-2 0 -2 0 0 0 Z " fill="#C93C62" transform="translate(375,195)"/>
<path d="M0 0 C0.66 0.99 1.32 1.98 2 3 C1.125 5.6875 1.125 5.6875 0 8 C-1.32 8 -2.64 8 -4 8 C-4 7.34 -4 6.68 -4 6 C-3.34 5.67 -2.68 5.34 -2 5 C-1.27840576 3.35636866 -0.60648579 1.68949614 0 0 Z " fill="#CD6A48" transform="translate(77,98)"/>
<path d="M0 0 C1.98 0 3.96 0 6 0 C5.67 1.32 5.34 2.64 5 4 C3.68 4 2.36 4 1 4 C0.67 2.68 0.34 1.36 0 0 Z " fill="#E66D4E" transform="translate(359,96)"/>
<path d="M0 0 C2.64 0.33 5.28 0.66 8 1 C7.67 1.66 7.34 2.32 7 3 C4.36 3 1.72 3 -1 3 C-0.67 2.01 -0.34 1.02 0 0 Z " fill="#F77D37" transform="translate(103,71)"/>
<path d="M0 0 C0 0.66 0 1.32 0 2 C-5.45769231 5.10096154 -5.45769231 5.10096154 -8.203125 4.58984375 C-8.79609375 4.39519531 -9.3890625 4.20054688 -10 4 C-8.71086513 3.32845067 -7.41859796 2.66291141 -6.125 2 C-5.40570313 1.62875 -4.68640625 1.2575 -3.9453125 0.875 C-2 0 -2 0 0 0 Z " fill="#D07C3E" transform="translate(252,21)"/>
<path d="M0 0 C1 3 1 3 0 6 C-0.99 6.33 -1.98 6.66 -3 7 C-3.1875 4.625 -3.1875 4.625 -3 2 C-2.01 1.34 -1.02 0.68 0 0 Z " fill="#CD0E64" transform="translate(416,230)"/>
<path d="M0 0 C0.99 0.33 1.98 0.66 3 1 C2.67 2.98 2.34 4.96 2 7 C1.34 7 0.68 7 0 7 C0 5.68 0 4.36 0 3 C-0.66 3 -1.32 3 -2 3 C-1 1 -1 1 0 0 Z " fill="#F73E69" transform="translate(178,202)"/>
<path d="M0 0 C0 0.66 0 1.32 0 2 C-6.75 6 -6.75 6 -9 6 C-9 5.34 -9 4.68 -9 4 C-3.70588235 0 -3.70588235 0 0 0 Z " fill="#995638" transform="translate(271,79)"/>
<path d="M0 0 C0.66 0 1.32 0 2 0 C2.433125 0.9590625 2.433125 0.9590625 2.875 1.9375 C3.82823451 4.15206079 3.82823451 4.15206079 6 5 C6 5.66 6 6.32 6 7 C4.35 6.67 2.7 6.34 1 6 C0.67 4.02 0.34 2.04 0 0 Z " fill="#CF671E" transform="translate(233,33)"/>
<path d="M0 0 C0 0.33 0 0.66 0 1 C-1.65 1 -3.3 1 -5 1 C-5.33 1.99 -5.66 2.98 -6 4 C-6.99 4.33 -7.98 4.66 -9 5 C-9 4.01 -9 3.02 -9 2 C-5.5647952 -0.29013653 -4.014669 -0.17842973 0 0 Z " fill="#E2833D" transform="translate(83,19)"/>
<path d="M0 0 C0.99 0 1.98 0 3 0 C3 0.66 3 1.32 3 2 C3.99 2.33 4.98 2.66 6 3 C5.67 3.66 5.34 4.32 5 5 C2.525 4.01 2.525 4.01 0 3 C0 2.01 0 1.02 0 0 Z " fill="#DA5D4C" transform="translate(378,109)"/>
<path d="M0 0 C0 3.99904969 -1.72586967 5.80200422 -4 9 C-5 7 -5 7 -4.25 4.5 C-3 2 -3 2 0 0 Z " fill="#BB6748" transform="translate(84,89)"/>
<path d="M0 0 C1.98 0 3.96 0 6 0 C1.375 4 1.375 4 -2 4 C-1.34 3.67 -0.68 3.34 0 3 C0 2.01 0 1.02 0 0 Z " fill="#9D553C" transform="translate(256,85)"/>
<path d="M0 0 C2.17288535 2.17288535 2.64827002 3.01029519 3 6 C2.37530495 7.35350594 1.71229455 8.69047387 1 10 C0.63883954 8.5225254 0.28624952 7.04295325 -0.0625 5.5625 C-0.25972656 4.73878906 -0.45695313 3.91507812 -0.66015625 3.06640625 C-0.82837891 2.04353516 -0.82837891 2.04353516 -1 1 C-0.67 0.67 -0.34 0.34 0 0 Z " fill="#97583D" transform="translate(244,73)"/>
<path d="M0 0 C4 1 4 1 5.8125 3.9375 C6.204375 4.948125 6.59625 5.95875 7 7 C6.67 7.66 6.34 8.32 6 9 C4.02 6.03 2.04 3.06 0 0 Z " fill="#A35D38" transform="translate(225,42)"/>
<path d="M0 0 C0.99 0 1.98 0 3 0 C3.33 0.99 3.66 1.98 4 3 C3.34 3.66 2.68 4.32 2 5 C1.01 4.67 0.02 4.34 -1 4 C-0.67 2.68 -0.34 1.36 0 0 Z " fill="#F9802A" transform="translate(361,27)"/>
</svg>
